<svg width="42" height="20" viewBox="0 0 42 20" fill="none" xmlns="http://www.w3.org/2000/svg">
<path fill-rule="evenodd" clip-rule="evenodd" d="M0 0H42V20H0V0Z" fill="#F1F6FD"/>
<path fill-rule="evenodd" clip-rule="evenodd" d="M37.1232 13.9109C37.1888 13.9111 37.2543 13.9113 37.3199 13.9113H37.9987C38.0209 13.9122 38.043 13.9118 38.0651 13.9101C38.1511 13.9012 38.2033 13.8241 38.1733 13.7445C38.1631 13.7202 38.1514 13.6966 38.1381 13.6737L36.2958 10.3295C35.3403 8.59632 34.3857 6.8627 33.432 5.12866V5.12866C33.4215 5.1097 33.4111 5.09074 33.3994 5.07305C33.3836 5.05075 33.3626 5.03246 33.3379 5.01974C33.3133 5.00702 33.2859 5.00026 33.2581 5.00001C33.2302 4.99976 33.2026 5.00604 33.1778 5.01832C33.153 5.03059 33.1315 5.0485 33.1154 5.07052C33.1017 5.09029 33.0895 5.11098 33.0789 5.13245L31.1362 8.65993L28.3727 13.6763C28.3615 13.695 28.3515 13.7144 28.3428 13.7344C28.3063 13.8191 28.3571 13.9025 28.4509 13.9101C28.473 13.9118 28.4952 13.9122 28.5174 13.9113H29.3512C29.4052 13.9113 29.4592 13.911 29.5131 13.9107C29.6389 13.9099 29.7644 13.9091 29.8893 13.9126C29.9949 13.9151 30.0639 13.8772 30.1043 13.7837L30.1082 13.7774L32.5056 9.35001L33.0919 8.26687C33.1271 8.19988 33.1753 8.15565 33.2574 8.15438C33.3395 8.15312 33.4033 8.21631 33.4294 8.26813C33.448 8.30527 33.4681 8.34176 33.488 8.37807C33.4958 8.39242 33.5037 8.40674 33.5114 8.42106L36.417 13.785C36.4652 13.8747 36.529 13.9151 36.6332 13.9126C36.7961 13.9099 36.9596 13.9104 37.1232 13.9109ZM9.56215 10.2896L9.51426 10.2683C9.52246 10.2627 9.52927 10.2576 9.53539 10.2531L9.5354 10.2531C9.54516 10.2458 9.55315 10.2399 9.56215 10.235C9.97321 10.0049 10.2486 9.66034 10.4056 9.22135C10.5891 8.70253 10.5971 8.17574 10.4388 7.6516C10.2419 7.00242 9.8189 6.54214 9.21494 6.24415C8.77727 6.02864 8.30901 5.94084 7.82345 5.93951C6.29006 5.94129 4.758 5.94084 3.22726 5.93818C3.07428 5.93818 2.98914 6.01401 3.00111 6.16566V15.0893C3.00111 15.1119 3.00111 15.1345 3.00244 15.1571C3.01176 15.2529 3.07295 15.3128 3.16873 15.3194C3.18906 15.3203 3.20881 15.32 3.22875 15.3197H3.22879C3.23884 15.3196 3.24894 15.3194 3.25919 15.3194H7.58399C7.93652 15.3194 8.30502 15.2955 8.6336 15.2383C8.96218 15.1811 9.28013 15.0919 9.58077 14.9483C10.206 14.6516 10.6304 14.178 10.8352 13.5129C10.9137 13.2575 10.9523 12.9954 10.9683 12.728C10.9896 12.3595 10.959 11.995 10.8406 11.6438C10.6224 10.9973 10.202 10.5383 9.56215 10.2896ZM6.6754 13.9622L6.25369 13.9625H4.78504C4.75976 13.9634 4.73445 13.963 4.70922 13.9612C4.67147 13.9578 4.63585 13.9422 4.60777 13.9168C4.57968 13.8913 4.56065 13.8574 4.55357 13.8202C4.54866 13.7903 4.54644 13.76 4.54692 13.7297V11.3498C4.54603 11.3299 4.54648 11.3099 4.54825 11.29C4.55756 11.1782 4.62674 11.113 4.73981 11.109C4.75134 11.1081 4.76287 11.1084 4.7744 11.1087L4.7917 11.109C5.69541 11.1073 6.59957 11.1073 7.50418 11.109C7.82877 11.1104 8.15203 11.1303 8.46731 11.2141C8.57333 11.2434 8.67696 11.2808 8.77727 11.3259C9.07792 11.4629 9.28013 11.7077 9.36127 12.0136C9.44242 12.3196 9.45439 12.6282 9.38522 12.9382C9.30673 13.2934 9.0992 13.5514 8.7786 13.7191C8.58571 13.8202 8.37818 13.8787 8.164 13.9133C7.95069 13.9477 7.73487 13.9641 7.51881 13.9625C7.23767 13.9616 6.95654 13.9619 6.6754 13.9622ZM5.79991 7.29447L5.80006 7.29447C5.9438 7.29411 6.0875 7.29375 6.23108 7.29375C6.34419 7.29375 6.4573 7.29359 6.57039 7.29342H6.5704H6.57041C6.90953 7.29292 7.24847 7.29242 7.58665 7.29641C7.84872 7.29774 8.10813 7.32568 8.3569 7.41481C8.42499 7.44032 8.49122 7.47055 8.55511 7.50527C8.7653 7.62234 8.90498 7.80059 8.95686 8.03473C9.03402 8.37395 9.00342 8.72781 8.87571 9.03112C8.74801 9.33442 8.51254 9.52465 8.20923 9.63507C7.96313 9.7242 7.70771 9.75479 7.44697 9.75479H4.71321C4.6715 9.75059 4.63257 9.73194 4.60317 9.70205C4.57378 9.67217 4.55576 9.63294 4.55224 9.59117C4.55 9.5664 4.54912 9.54153 4.54958 9.51667C4.54958 9.31882 4.54994 9.12085 4.5503 8.92283L4.5503 8.92269C4.55114 8.46037 4.55198 7.99779 4.54825 7.53587C4.54692 7.36958 4.62142 7.28976 4.79303 7.29242C5.12828 7.29615 5.46419 7.29531 5.79983 7.29447H5.79984H5.79991ZM18.9368 10.2842L18.8955 10.2669L18.9434 10.235C19.3133 10.0287 19.5728 9.72532 19.7404 9.33942C19.8629 9.05732 19.9201 8.76057 19.9267 8.45318C19.9347 8.10587 19.8828 7.76788 19.7484 7.44585C19.5103 6.87233 19.0938 6.47179 18.5363 6.21497C18.1145 6.02069 17.6674 5.93951 17.2043 5.93818H12.5473C12.5054 5.9394 12.4654 5.95614 12.4352 5.98516C12.4049 6.01418 12.3866 6.0534 12.3836 6.09521C12.3818 6.11778 12.3814 6.14044 12.3823 6.16307V15.096C12.3818 15.1213 12.3827 15.1466 12.3849 15.1718C12.3891 15.2095 12.4063 15.2446 12.4335 15.2711C12.4606 15.2975 12.4962 15.3137 12.534 15.3169C12.5667 15.3198 12.5996 15.3207 12.6324 15.3195H16.9808C17.3275 15.3218 17.6738 15.2946 18.016 15.2384C18.3553 15.1785 18.6853 15.0853 18.9966 14.9323C19.6061 14.6329 20.0159 14.1632 20.2168 13.5138C20.3033 13.233 20.3432 12.9443 20.3538 12.6528C20.3658 12.3242 20.3365 11.9995 20.2368 11.6854C20.0225 11.0161 19.5967 10.541 18.9368 10.2842ZM16.0333 13.9619L15.6356 13.9622V13.9609H14.0921C14.0527 13.9578 14.0156 13.9415 13.9866 13.9147C13.9577 13.8879 13.9386 13.8522 13.9324 13.8132C13.9291 13.7836 13.9278 13.7538 13.9284 13.724C13.9275 12.9336 13.9271 12.1423 13.9271 11.3501C13.9277 11.3452 13.9277 11.3403 13.9271 11.3355C13.9151 11.1651 14.0309 11.1052 14.156 11.1052C14.7272 11.1077 15.2985 11.1076 15.8698 11.1075C16.2127 11.1075 16.5555 11.1074 16.8983 11.1079C17.2176 11.1092 17.537 11.1292 17.8457 11.213C17.9666 11.246 18.0842 11.2901 18.197 11.3448C18.4671 11.4752 18.6467 11.6894 18.7305 11.9755C18.8277 12.3015 18.841 12.6342 18.7598 12.9655C18.672 13.3315 18.4444 13.5856 18.1078 13.7453C17.8962 13.8451 17.6727 13.8984 17.4425 13.929C17.2376 13.9569 17.0327 13.9622 16.8264 13.9622C16.5622 13.9613 16.298 13.9616 16.0333 13.9619ZM14.1054 7.29149H15.6116C15.7247 7.29149 15.8378 7.29133 15.951 7.29116C16.2902 7.29066 16.6295 7.29016 16.9688 7.29415C17.2296 7.29549 17.4891 7.32476 17.7379 7.41126C17.8426 7.44721 17.9413 7.4988 18.0306 7.56428C18.2116 7.69868 18.3167 7.88099 18.354 8.09922C18.4045 8.38532 18.3872 8.67008 18.2914 8.94554C18.173 9.28619 17.9322 9.50709 17.5982 9.63084C17.4305 9.69218 17.2548 9.72894 17.0766 9.73996C16.9316 9.74794 16.7865 9.75326 16.6402 9.75326H14.1772L14.1563 9.75343C14.1353 9.75368 14.1144 9.75393 14.0934 9.75193C14.0505 9.74779 14.0106 9.72825 13.981 9.69694C13.9514 9.66563 13.9341 9.62466 13.9324 9.58161C13.9311 9.55898 13.9311 9.53636 13.9311 9.51374V7.53235C13.9311 7.50973 13.9311 7.4871 13.9324 7.46448C13.9331 7.41882 13.9515 7.37521 13.9838 7.34292C14.0161 7.31063 14.0597 7.29218 14.1054 7.29149ZM21.4182 5.93998H21.4182C21.5835 5.94052 21.7485 5.94107 21.9142 5.93822C22.0094 5.93688 22.0693 5.97813 22.1136 6.06327C22.9496 7.6872 23.7859 9.31157 24.6227 10.9364L25.0998 11.8623C25.1104 11.8852 25.123 11.907 25.1376 11.9275C25.1536 11.9499 25.1745 11.9681 25.1987 11.9807C25.2229 11.9933 25.2496 11.9999 25.2767 12C25.3039 12.0001 25.3307 11.9938 25.3549 11.9814C25.3792 11.969 25.4003 11.951 25.4165 11.9288C25.4328 11.9066 25.4463 11.8825 25.4569 11.857L28.4079 6.12447C28.4141 6.11288 28.4201 6.10129 28.426 6.08978C28.4351 6.07223 28.4441 6.05487 28.4535 6.03799C28.4887 5.9728 28.5409 5.93955 28.6152 5.93955C28.7537 5.93955 28.8922 5.93976 29.0308 5.93998H29.0308C29.3771 5.94052 29.7235 5.94107 30.0698 5.93822C30.1636 5.93822 30.2484 6.034 30.1858 6.15107C30.0802 6.3504 29.976 6.55041 29.8716 6.75061L29.7478 6.98787L26.1908 13.782L25.4504 15.1975C25.427 15.2401 25.4035 15.28 25.3579 15.3013C25.3179 15.3219 25.2716 15.3256 25.2289 15.3117C25.1862 15.2978 25.1506 15.2673 25.1298 15.2268C25.0889 15.1558 25.0512 15.0823 25.0135 15.009L25.0135 15.0089L24.9825 14.9488L20.8754 7.10361L20.7828 6.92684L20.7823 6.92582C20.6501 6.67336 20.5175 6.4202 20.3866 6.16704C20.3704 6.13654 20.3602 6.10309 20.3566 6.06859C20.3527 6.00074 20.4009 5.94886 20.4674 5.94088C20.4895 5.93909 20.5117 5.93865 20.5339 5.93955H21.2195C21.2858 5.93955 21.352 5.93976 21.4182 5.93998Z" fill="#004679"/>
</svg>
