<svg width="60" height="35" viewBox="0 0 60 35" fill="none" xmlns="http://www.w3.org/2000/svg">
<rect width="60" height="34.6667" rx="3" fill="#C4C4C4"/>
<rect x="5.33334" y="28" width="26.6667" height="2.66667" fill="#AAAAAA"/>
<rect x="5.33334" y="6.66667" width="10.6667" height="4" fill="#AAAAAA"/>
<rect x="38.6667" y="8" width="4" height="1.33333" fill="#666666"/>
<rect x="43.9999" y="8" width="4" height="1.33333" fill="#666666"/>
<rect x="49.3333" y="8" width="4" height="1.33333" fill="#666666"/>
<rect x="5.33344" y="22.6666" width="2.66667" height="1.33333" fill="#666666"/>
<rect x="9.33353" y="22.6665" width="2.66667" height="1.33333" fill="#666666"/>
<rect x="13.3335" y="22.6665" width="2.66667" height="1.33333" fill="#666666"/>
<rect x="17.3335" y="22.6665" width="2.66667" height="1.33333" fill="#666666"/>
<rect x="24.0001" y="22.6666" width="2.66667" height="1.33333" fill="#666666"/>
<rect x="28.0001" y="22.6665" width="2.66667" height="1.33333" fill="#666666"/>
<rect x="32.0001" y="22.6665" width="2.66667" height="1.33333" fill="#666666"/>
<rect x="36.0001" y="22.6665" width="2.66667" height="1.33333" fill="#666666"/>
<rect x="42.6667" y="22.6666" width="2.66667" height="1.33333" fill="#666666"/>
<rect x="46.6667" y="22.6665" width="2.66667" height="1.33333" fill="#666666"/>
<rect x="50.6667" y="22.6665" width="2.66667" height="1.33333" fill="#666666"/>
<rect x="54.6667" y="22.6665" width="2.66667" height="1.33333" fill="#666666"/>
<path d="M57.9167 9.33333C57.9167 11.2137 56.7734 13.0078 54.7359 14.3661C52.7037 15.721 49.8529 16.5833 46.6667 16.5833C43.4804 16.5833 40.6296 15.721 38.5974 14.3661C36.5599 13.0078 35.4167 11.2137 35.4167 9.33333C35.4167 7.45298 36.5599 5.65884 38.5974 4.30051C40.6296 2.94568 43.4804 2.08333 46.6667 2.08333C49.8529 2.08333 52.7037 2.94568 54.7359 4.30051C56.7734 5.65884 57.9167 7.45298 57.9167 9.33333Z" stroke="#FBA53A" stroke-width="1.5"/>
</svg>
