<svg width="38" height="34" viewBox="0 0 38 34" fill="none" xmlns="http://www.w3.org/2000/svg">
<path d="M36.2727 20.4014H34.5455C34.5455 13.8231 29.1391 8.50261 22.4545 8.50261H20.7273V6.34383C21.2526 6.04538 21.6887 5.61608 21.9919 5.0991C22.2952 4.58212 22.4547 3.99569 22.4545 3.39878C22.4544 2.80187 22.2945 2.21552 21.9911 1.69869C21.6876 1.18187 21.2512 0.752786 20.7257 0.454596C20.2003 0.156405 19.6043 -0.000381871 18.9978 6.98443e-07C18.3912 0.000383268 17.7955 0.157922 17.2704 0.456775C16.7454 0.755628 16.3095 1.18526 16.0067 1.70247C15.7039 2.21968 15.5448 2.80623 15.5455 3.40314C15.5455 4.66101 16.2364 5.76589 17.2727 6.34383V8.50261H15.5455C8.86091 8.50261 3.45455 13.8231 3.45455 20.4014H1.72727C0.777273 20.4014 0 21.1663 0 22.1012V27.2007C0 28.1356 0.777273 28.9005 1.72727 28.9005H3.45455V30.6003C3.45455 31.502 3.81851 32.3667 4.46636 33.0043C5.11421 33.6418 5.99289 34 6.90909 34H31.0909C33.0082 34 34.5455 32.4872 34.5455 30.6003V28.9005H36.2727C37.2227 28.9005 38 28.1356 38 27.2007V22.1012C38 21.1663 37.2227 20.4014 36.2727 20.4014ZM15.1827 24.651C14.5091 23.1551 13.0064 22.1012 11.2273 22.1012C9.44818 22.1012 7.94545 23.1551 7.27182 24.651C7.04727 24.124 6.90909 23.5631 6.90909 22.9511C6.90909 21.8241 7.36404 20.7432 8.17386 19.9462C8.98367 19.1493 10.082 18.7016 11.2273 18.7016C12.3725 18.7016 13.4709 19.1493 14.2807 19.9462C15.0905 20.7432 15.5455 21.8241 15.5455 22.9511C15.5455 23.5631 15.4073 24.124 15.1827 24.651ZM30.7282 24.651C30.0545 23.1551 28.5 22.1012 26.7727 22.1012C25.0455 22.1012 23.4909 23.1551 22.8173 24.651C22.5927 24.124 22.4545 23.5631 22.4545 22.9511C22.4545 21.8241 22.9095 20.7432 23.7193 19.9462C24.5291 19.1493 25.6275 18.7016 26.7727 18.7016C27.918 18.7016 29.0163 19.1493 29.8261 19.9462C30.636 20.7432 31.0909 21.8241 31.0909 22.9511C31.0909 23.5631 30.9527 24.124 30.7282 24.651Z" fill="white"/>
</svg>
