<svg width="52" height="20" viewBox="0 0 52 20" fill="none" xmlns="http://www.w3.org/2000/svg">
<path fill-rule="evenodd" clip-rule="evenodd" d="M0 0H51.6684V20H0V0Z" fill="#F1F6FD"/>
<path d="M20.6118 4.2723H8.26019V16.6021H20.6118V4.2723Z" fill="white"/>
<path d="M26.7877 10.4483L20.6119 4.2723V16.6132L26.7877 10.4483Z" fill="#DC0D17"/>
<path d="M14.436 10.4483L20.6118 4.2723H8.26019L14.436 10.4483Z" fill="#DC0D17"/>
<path d="M2.07343 10.4483L8.26034 16.6132V4.2723L2.07343 10.4483Z" fill="#DC0D17"/>
<path d="M14.436 10.4481L8.26019 16.6131H20.6118L14.436 10.4481Z" fill="#DC0D17"/>
<path d="M32.2095 10.8134H29.9698V13.0159H28.8499V7.84714H29.9698V9.97221H32.2095V7.84714H33.3293V13.0159H32.2095V10.8134Z" fill="#1D1D1B"/>
<path d="M36.0236 13.1155C34.9038 13.1155 33.9946 12.6617 33.9724 11.4332H35.0923C35.1034 11.9866 35.4249 12.3186 36.0347 12.3186C36.6445 12.3186 37.0104 12.0862 37.0104 11.5771C37.0104 11.0679 36.6667 11.0569 36.0791 10.8798L35.7021 10.7802C34.8927 10.5477 34.0722 10.2268 34.0722 9.29705C34.0722 8.15704 35.1477 7.75858 36.1234 7.75858C37.0991 7.75858 37.9972 8.11276 38.0194 9.25277H36.8995C36.8552 8.78791 36.578 8.51122 36.0569 8.51122C35.5358 8.51122 35.2253 8.73257 35.2253 9.19743C35.2253 9.66229 35.569 9.69549 36.3008 9.92792L36.7332 10.0497C37.6202 10.3264 38.1857 10.6363 38.1857 11.4996C38.1746 12.6617 37.0437 13.1155 36.0236 13.1155Z" fill="#1D1D1B"/>
<path d="M38.8178 7.8583H40.614C40.9554 7.8418 41.2977 7.86407 41.6341 7.9247C42.255 8.06859 42.7428 8.47812 42.7428 9.16434C42.7428 9.85056 42.3215 10.1715 41.7006 10.3265C42.3991 10.4593 42.9313 10.8135 42.9313 11.5772C42.9313 12.7504 41.7671 13.016 40.8579 13.016H38.8289L38.8178 7.8583ZM40.614 10.0055C41.1129 10.0055 41.623 9.90589 41.623 9.31928C41.623 8.73267 41.1573 8.63306 40.6916 8.63306H39.9044V10.0055H40.614ZM40.7138 12.2413C41.246 12.2413 41.7449 12.1306 41.7449 11.4886C41.7449 10.8467 41.3125 10.736 40.7803 10.736H39.8933V12.2413H40.7138Z" fill="#1D1D1B"/>
<path d="M45.8363 13.1156C44.1621 13.1156 43.4192 12.0531 43.4192 10.4704C43.4192 8.88762 44.2508 7.74761 45.8917 7.74761C46.9229 7.74761 47.9208 8.21247 47.954 9.37461H46.7898C46.7344 8.85441 46.3796 8.58878 45.8917 8.58878C44.8717 8.58878 44.5723 9.67346 44.5723 10.5036C44.5723 11.3337 44.8717 12.2855 45.8474 12.2855C46.3574 12.2855 46.7344 12.0088 46.8009 11.4886H47.9651C47.8542 12.684 46.9118 13.1156 45.8363 13.1156Z" fill="#1D1D1B"/>
</svg>
