<svg width="69" height="72" viewBox="0 0 69 72" fill="none" xmlns="http://www.w3.org/2000/svg">
<rect width="68.3641" height="71.6572" rx="24" fill="#322F2F"/>
<path d="M50.546 23.6785C50.3945 23.5058 50.2089 23.3661 50.0009 23.2683C49.7928 23.1705 49.5668 23.1166 49.3369 23.1099C45.7658 23.0167 41.2471 19.2045 38.2595 17.7085C36.414 16.7873 35.1957 16.1799 34.2807 16.0199C34.0949 15.9929 33.9062 15.9934 33.7206 16.0214C32.8056 16.1814 31.5872 16.7889 29.7433 17.7101C26.7557 19.2045 22.237 23.0167 18.6659 23.1099C18.4359 23.1169 18.2097 23.171 18.0015 23.2688C17.7932 23.3666 17.6073 23.506 17.4553 23.6785C17.1402 24.0344 16.9776 24.4997 17.0025 24.9741C17.7696 40.5445 23.3636 50.1807 33.1791 55.781C33.4342 55.9254 33.7174 56 33.9991 56C34.2807 56 34.5639 55.9254 34.8207 55.781C44.6361 50.1807 50.2285 40.5445 50.9972 24.9741C51.0236 24.4997 50.8614 24.0342 50.546 23.6785ZM42.7409 29.8023L34.4581 42.0048C34.1609 42.4429 33.6941 42.7334 33.232 42.7334C32.7683 42.7334 32.2532 42.4802 31.928 42.1555L26.0897 36.3253C25.8991 36.1343 25.7921 35.8757 25.7921 35.606C25.7921 35.3364 25.8991 35.0778 26.0897 34.8868L27.5322 33.4436C27.7239 33.2541 27.9828 33.1477 28.2526 33.1477C28.5225 33.1477 28.7814 33.2541 28.9731 33.4436L32.7698 37.2341L39.3659 27.514C39.5185 27.2916 39.753 27.1385 40.0183 27.0881C40.2836 27.0378 40.5581 27.0943 40.7818 27.2453L42.4701 28.3886C42.6932 28.5407 42.8469 28.7748 42.8976 29.0397C42.9483 29.3046 42.892 29.5787 42.7409 29.8023Z" fill="white"/>
</svg>
