<svg width="69" height="72" viewBox="0 0 69 72" fill="none" xmlns="http://www.w3.org/2000/svg">
<rect width="68.3641" height="71.6572" rx="24" fill="#322F2F"/>
<path d="M30.9242 20.543C31.0806 18.2829 33.2147 16.5353 35.5148 17.1106L36.1428 17.2701C37.2568 17.5505 38.2457 18.3723 38.5777 19.6027C39.107 21.5751 39.8601 25.6723 38.7269 30.5042C39.0812 30.455 39.4366 30.4139 39.7927 30.3809C41.5082 30.2238 43.8084 30.2069 45.8462 30.8885C47.0926 31.3067 48.2378 32.5346 48.7335 33.9656C49.1762 35.2516 49.1184 36.7744 48.1704 38.1546C48.31 38.4423 48.4183 38.7396 48.5025 39.0321C48.6877 39.6847 48.7744 40.4026 48.7744 41.1012C48.7744 41.7997 48.6877 42.5176 48.5025 43.1703C48.4086 43.4966 48.2859 43.8302 48.1175 44.1468C48.5241 45.0823 48.375 46.1265 48.1103 46.9218C47.8393 47.707 47.4428 48.4426 46.9362 49.0996C47.0661 49.4671 47.119 49.8538 47.119 50.2236C47.119 50.9609 46.9049 51.7344 46.5103 52.4281C45.7067 53.8446 44.1115 55 41.8571 55H33.4361C31.9804 55 30.8616 54.8042 29.9088 54.473C29.0896 54.1725 28.3067 53.78 27.575 53.3031L27.4595 53.2306C26.2469 52.4885 25.0559 51.7585 22.4839 51.4854C20.6409 51.2872 19 49.7934 19 47.7484V38.0797C19 36.0251 20.6481 34.6183 22.265 34.1759C24.3077 33.6151 26.052 32.2736 27.3946 30.7677C28.7419 29.2521 29.5937 27.6737 29.8944 26.8059C30.3732 25.416 30.7509 23.0859 30.9242 20.5454V20.543Z" fill="white"/>
</svg>
