<svg width="69" height="72" viewBox="0 0 69 72" fill="none" xmlns="http://www.w3.org/2000/svg">
<rect width="68.3641" height="71.6572" rx="24" fill="#322F2F"/>
<path d="M26.5263 50H21.6316C21.1989 50 20.7839 49.8281 20.4779 49.5221C20.1719 49.2161 20 48.8011 20 48.3684V35.3158C20 34.8831 20.1719 34.4681 20.4779 34.1621C20.7839 33.8561 21.1989 33.6842 21.6316 33.6842H26.5263C26.959 33.6842 27.374 33.8561 27.68 34.1621C27.986 34.4681 28.1579 34.8831 28.1579 35.3158V48.3684C28.1579 48.8011 27.986 49.2161 27.68 49.5221C27.374 49.8281 26.959 50 26.5263 50ZM37.9474 50H33.0526C32.6199 50 32.2049 49.8281 31.8989 49.5221C31.593 49.2161 31.4211 48.8011 31.4211 48.3684V20.6316C31.4211 20.1989 31.593 19.7839 31.8989 19.4779C32.2049 19.1719 32.6199 19 33.0526 19H37.9474C38.3801 19 38.7951 19.1719 39.1011 19.4779C39.407 19.7839 39.5789 20.1989 39.5789 20.6316V48.3684C39.5789 48.8011 39.407 49.2161 39.1011 49.5221C38.7951 49.8281 38.3801 50 37.9474 50ZM49.3684 50H44.4737C44.041 50 43.626 49.8281 43.32 49.5221C43.014 49.2161 42.8421 48.8011 42.8421 48.3684V30.4211C42.8421 29.9883 43.014 29.5733 43.32 29.2674C43.626 28.9614 44.041 28.7895 44.4737 28.7895H49.3684C49.8011 28.7895 50.2161 28.9614 50.5221 29.2674C50.8281 29.5733 51 29.9883 51 30.4211V48.3684C51 48.8011 50.8281 49.2161 50.5221 49.5221C50.2161 49.8281 49.8011 50 49.3684 50Z" fill="white"/>
</svg>
