<svg width="69" height="72" viewBox="0 0 69 72" fill="none" xmlns="http://www.w3.org/2000/svg">
<rect width="68.3641" height="71.6572" rx="24" fill="#322F2F"/>
<path d="M51.2727 36.4014H49.5455C49.5455 29.8231 44.1391 24.5026 37.4545 24.5026H35.7273V22.3438C36.2526 22.0454 36.6887 21.6161 36.9919 21.0991C37.2952 20.5821 37.4547 19.9957 37.4545 19.3988C37.4544 18.8019 37.2945 18.2155 36.9911 17.6987C36.6876 17.1819 36.2512 16.7528 35.7257 16.4546C35.2003 16.1564 34.6043 15.9996 33.9978 16C33.3912 16.0004 32.7955 16.1579 32.2704 16.4568C31.7454 16.7556 31.3095 17.1853 31.0067 17.7025C30.7039 18.2197 30.5448 18.8062 30.5455 19.4031C30.5455 20.661 31.2364 21.7659 32.2727 22.3438V24.5026H30.5455C23.8609 24.5026 18.4545 29.8231 18.4545 36.4014H16.7273C15.7773 36.4014 15 37.1663 15 38.1012V43.2007C15 44.1356 15.7773 44.9005 16.7273 44.9005H18.4545V46.6003C18.4545 47.502 18.8185 48.3667 19.4664 49.0043C20.1142 49.6418 20.9929 50 21.9091 50H46.0909C48.0082 50 49.5455 48.4872 49.5455 46.6003V44.9005H51.2727C52.2227 44.9005 53 44.1356 53 43.2007V38.1012C53 37.1663 52.2227 36.4014 51.2727 36.4014ZM30.1827 40.651C29.5091 39.1551 28.0064 38.1012 26.2273 38.1012C24.4482 38.1012 22.9455 39.1551 22.2718 40.651C22.0473 40.124 21.9091 39.5631 21.9091 38.9511C21.9091 37.8241 22.364 36.7432 23.1739 35.9462C23.9837 35.1493 25.082 34.7016 26.2273 34.7016C27.3725 34.7016 28.4709 35.1493 29.2807 35.9462C30.0905 36.7432 30.5455 37.8241 30.5455 38.9511C30.5455 39.5631 30.4073 40.124 30.1827 40.651ZM45.7282 40.651C45.0545 39.1551 43.5 38.1012 41.7727 38.1012C40.0455 38.1012 38.4909 39.1551 37.8173 40.651C37.5927 40.124 37.4545 39.5631 37.4545 38.9511C37.4545 37.8241 37.9095 36.7432 38.7193 35.9462C39.5291 35.1493 40.6275 34.7016 41.7727 34.7016C42.918 34.7016 44.0163 35.1493 44.8261 35.9462C45.636 36.7432 46.0909 37.8241 46.0909 38.9511C46.0909 39.5631 45.9527 40.124 45.7282 40.651Z" fill="white"/>
</svg>
