<svg width="69" height="72" viewBox="0 0 69 72" fill="none" xmlns="http://www.w3.org/2000/svg">
<rect width="68.3641" height="71.6572" rx="24" fill="#322F2F"/>
<path fill-rule="evenodd" clip-rule="evenodd" d="M22.1565 19.4031C25.6365 16.5495 29.9996 14.9931 34.5 15C39.0004 14.9933 43.3634 16.5497 46.8435 19.4031C46.8188 19.4252 46.7948 19.448 46.7713 19.4714L39.8761 26.3646C38.2823 25.3086 36.412 24.7469 34.5 24.75C32.511 24.75 30.6644 25.3448 29.1239 26.3646L22.2287 19.4714C22.2052 19.448 22.1811 19.4253 22.1565 19.4031ZM19.4031 22.1565C16.5495 25.6365 14.9931 29.9996 15 34.5C14.9933 39.0004 16.5497 43.3634 19.4031 46.8435C19.4252 46.8188 19.448 46.7948 19.4714 46.7713L26.3646 39.8761C25.3086 38.2823 24.7469 36.412 24.75 34.5C24.75 32.511 25.3448 30.6644 26.3646 29.1239L19.4714 22.2287C19.448 22.2052 19.4253 22.1811 19.4031 22.1565ZM22.1565 49.5969C25.6365 52.4505 29.9996 54.0069 34.5 54C39.0004 54.0069 43.3635 52.4505 46.8435 49.5969C46.8188 49.5748 46.7948 49.552 46.7713 49.5286L39.8761 42.6354C38.2823 43.6914 36.412 44.2531 34.5 44.25C32.588 44.2531 30.7177 43.6914 29.1239 42.6354L22.2287 49.5286C22.2052 49.552 22.1812 49.5748 22.1565 49.5969ZM49.5969 46.8435C52.4505 43.3635 54.0069 39.0004 54 34.5C54.0069 29.9996 52.4505 25.6365 49.5969 22.1565C49.5748 22.1812 49.552 22.2052 49.5286 22.2287L42.6354 29.1239C43.6552 30.6644 44.25 32.513 44.25 34.5C44.25 36.489 43.6552 38.3356 42.6354 39.8761L49.5286 46.7713C49.552 46.7948 49.5748 46.8188 49.5969 46.8435Z" fill="white"/>
<path d="M34.4999 40.35C37.7308 40.35 40.3499 37.7309 40.3499 34.5C40.3499 31.2692 37.7308 28.65 34.4999 28.65C31.269 28.65 28.6499 31.2692 28.6499 34.5C28.6499 37.7309 31.269 40.35 34.4999 40.35Z" fill="white"/>
</svg>
