<svg width="69" height="72" viewBox="0 0 69 72" fill="none" xmlns="http://www.w3.org/2000/svg">
<rect width="68.3641" height="71.6572" rx="24" fill="#322F2F"/>
<path fill-rule="evenodd" clip-rule="evenodd" d="M28.4498 18.5412C28.307 18.0084 27.9584 17.5542 27.4806 17.2785C27.0029 17.0028 26.4352 16.9281 25.9024 17.071C25.3697 17.2138 24.9155 17.5624 24.6397 18.0402C24.364 18.5179 24.2894 19.0856 24.4322 19.6184L24.9708 21.6272C25.1136 22.1599 25.4623 22.6142 25.94 22.8899C26.4177 23.1656 26.9854 23.2402 27.5182 23.0974C28.051 22.9546 28.5052 22.6059 28.7809 22.1282C29.0566 21.6505 29.1313 21.0828 28.9884 20.55L28.4478 18.5412H28.4498ZM19.6264 24.4241C19.3622 24.3521 19.0863 24.333 18.8146 24.3679C18.543 24.4028 18.2809 24.491 18.0434 24.6274C17.8059 24.7639 17.5977 24.946 17.4308 25.1631C17.2639 25.3803 17.1415 25.6283 17.0707 25.8929C16.9999 26.1575 16.982 26.4334 17.0182 26.7049C17.0544 26.9765 17.1438 27.2381 17.2814 27.475C17.419 27.7118 17.602 27.9192 17.8199 28.0851C18.0378 28.251 18.2864 28.3722 18.5513 28.4418L20.5601 28.9804C21.092 29.12 21.6574 29.0434 22.1329 28.7672C22.6083 28.491 22.955 28.0377 23.0972 27.5066C23.2393 26.9754 23.1653 26.4096 22.8913 25.9329C22.6174 25.4562 22.1657 25.1073 21.6353 24.9627L19.6264 24.4221V24.4241ZM37.9553 23.2409C38.1484 23.0477 38.3015 22.8183 38.406 22.5659C38.5104 22.3136 38.5641 22.0431 38.564 21.7699C38.5639 21.4968 38.51 21.2263 38.4054 20.974C38.3008 20.7217 38.1475 20.4925 37.9543 20.2994C37.7611 20.1063 37.5317 19.9532 37.2793 19.8488C37.0269 19.7443 36.7565 19.6906 36.4833 19.6907C36.2102 19.6908 35.9397 19.7447 35.6874 19.8493C35.4351 19.9539 35.2059 20.1072 35.0128 20.3004L33.5426 21.7707C33.3494 21.9639 33.1961 22.1932 33.0915 22.4457C32.987 22.6981 32.9332 22.9687 32.9332 23.2419C32.9332 23.5152 32.987 23.7857 33.0915 24.0382C33.1961 24.2906 33.3494 24.52 33.5426 24.7132C33.7358 24.9064 33.9652 25.0597 34.2176 25.1642C34.47 25.2688 34.7406 25.3226 35.0138 25.3226C35.2871 25.3226 35.5576 25.2688 35.8101 25.1642C36.0625 25.0597 36.2919 24.9064 36.4851 24.7132L37.9553 23.2409ZM23.251 37.9472L24.7213 36.477C25.1117 36.0871 25.3313 35.558 25.3317 35.0062C25.3321 34.4544 25.1133 33.925 24.7233 33.5345C24.3334 33.144 23.8043 32.9244 23.2525 32.924C22.7007 32.9237 22.1713 33.1425 21.7808 33.5324L20.3085 35.0026C19.9183 35.3928 19.6991 35.9221 19.6991 36.4739C19.6991 37.0257 19.9183 37.555 20.3085 37.9452C20.6987 38.3354 21.228 38.5546 21.7798 38.5546C22.3316 38.5546 22.8608 38.3354 23.251 37.9452V37.9472ZM29.9055 27.194C29.5276 27.0428 29.1136 27.0058 28.7148 27.0875C28.3161 27.1693 27.9501 27.3664 27.6623 27.6542C27.3745 27.942 27.1774 28.308 27.0956 28.7068C27.0138 29.1055 27.0509 29.5195 27.2021 29.8974L35.5202 50.6926C35.6692 51.0648 35.9227 51.386 36.25 51.6174C36.5774 51.8489 36.9646 51.9808 37.3652 51.9973C37.7658 52.0138 38.1626 51.9141 38.5078 51.7103C38.8531 51.5065 39.1321 51.2073 39.3112 50.8486L42.1809 45.1112L48.4569 51.3913C48.8471 51.7812 49.3762 52.0002 49.9278 52C50.4795 51.9998 51.0084 51.7805 51.3984 51.3903C51.7883 51.0001 52.0072 50.471 52.007 49.9193C52.0068 49.3677 51.7875 48.8387 51.3973 48.4488L45.1193 42.1687L50.8587 39.301C51.2167 39.1215 51.5153 38.8424 51.7185 38.4972C51.9217 38.1521 52.0209 37.7556 52.0042 37.3555C51.9875 36.9553 51.8556 36.5685 51.6244 36.2415C51.3931 35.9145 51.0724 35.6612 50.7007 35.5121L29.9055 27.194Z" fill="white"/>
</svg>
