<svg width="69" height="72" viewBox="0 0 69 72" fill="none" xmlns="http://www.w3.org/2000/svg">
<rect width="68.3641" height="71.6572" rx="24" fill="#322F2F"/>
<path d="M44.26 53H38.067C37.6514 53 37.2528 52.8349 36.959 52.5411C36.6651 52.2472 36.5 51.8486 36.5 51.4331V49.0209C36.5012 48.6504 36.4268 48.2835 36.2815 47.9427C36.1362 47.6019 35.9229 47.2943 35.6547 47.0387C34.9774 46.378 33.9937 46.0115 32.9656 46.0367C31.1062 46.0803 29.5357 47.7168 29.5357 49.6111V51.4331C29.5357 51.8486 29.3706 52.2472 29.0768 52.5411C28.7829 52.8349 28.3843 53 27.9688 53H21.8419C21.2061 53 20.5764 52.8748 19.989 52.6314C19.4015 52.3881 18.8678 52.0315 18.4182 51.5819C17.5101 50.6739 17 49.4423 17 48.1582V42.0315C17 41.6159 17.1651 41.2174 17.459 40.9235C17.7528 40.6297 18.1514 40.4646 18.567 40.4646H20.9792C21.7766 40.4646 22.5523 40.1233 23.1634 39.507C23.5034 39.1643 23.7722 38.7578 23.9545 38.3108C24.1368 37.8638 24.2289 37.3851 24.2254 36.9024C24.1993 35.0578 22.6811 33.5004 20.9096 33.5004H18.567C18.1514 33.5004 17.7528 33.3354 17.459 33.0415C17.1651 32.7476 17 32.3491 17 31.9335V25.8068C17 25.171 17.1252 24.5414 17.3686 23.9539C17.6119 23.3665 17.9686 22.8327 18.4182 22.3831C19.3262 21.4751 20.5578 20.965 21.8419 20.965H26.6508C26.8355 20.965 27.0126 20.8916 27.1432 20.761C27.2738 20.6304 27.3472 20.4533 27.3472 20.2686V19.7045C27.3472 18.9469 27.4981 18.197 27.7911 17.4984C28.084 16.7998 28.5132 16.1665 29.0536 15.6356C29.5939 15.1046 30.2346 14.6866 30.9383 14.406C31.642 14.1253 32.3945 13.9876 33.1519 14.0009C36.2415 14.0549 38.7547 16.6455 38.7547 19.775V20.2686C38.7547 20.4533 38.8281 20.6304 38.9587 20.761C39.0893 20.8916 39.2664 20.965 39.4511 20.965H44.26C44.8871 20.965 45.5081 21.0885 46.0876 21.3285C46.667 21.5685 47.1935 21.9203 47.6369 22.3638C48.0804 22.8072 48.4322 23.3337 48.6722 23.9131C48.9122 24.4925 49.0357 25.1135 49.0357 25.7407V30.5494C49.0357 30.7341 49.1091 30.9112 49.2397 31.0418C49.3703 31.1724 49.5474 31.2458 49.7321 31.2458H50.2249C53.4093 31.2458 56 33.7703 56 36.8728C56 40.0598 53.4415 42.653 50.2963 42.653H49.7321C49.5474 42.653 49.3703 42.7264 49.2397 42.857C49.1091 42.9876 49.0357 43.1648 49.0357 43.3495V48.2243C49.0357 48.8515 48.9122 49.4725 48.6722 50.0519C48.4322 50.6313 48.0804 51.1578 47.6369 51.6012C47.1935 52.0447 46.667 52.3965 46.0876 52.6365C45.5081 52.8765 44.8871 53 44.26 53Z" fill="white"/>
</svg>
