<svg width="28" height="18" viewBox="0 0 28 18" fill="none" xmlns="http://www.w3.org/2000/svg">
<path fill-rule="evenodd" clip-rule="evenodd" d="M-3.93403e-07 9C-4.04994e-07 9.26518 0.10535 9.5195 0.292873 9.70701C0.480398 9.89452 0.734737 9.99986 0.999937 9.99986L24.5844 9.99986L18.2908 16.291C18.1031 16.4787 17.9976 16.7334 17.9976 16.9989C17.9976 17.2644 18.1031 17.519 18.2908 17.7068C18.4786 17.8945 18.7333 18 18.9988 18C19.2643 18 19.519 17.8945 19.7067 17.7068L27.7062 9.7079C27.7994 9.61502 27.8732 9.50469 27.9236 9.38321C27.9741 9.26174 28 9.13152 28 9C28 8.86848 27.9741 8.73826 27.9236 8.61679C27.8732 8.49531 27.7994 8.38498 27.7062 8.2921L19.7067 0.293221C19.6138 0.200259 19.5034 0.126517 19.3819 0.0762056C19.2605 0.0258945 19.1303 -3.87708e-07 18.9988 -3.93455e-07C18.7333 -4.05062e-07 18.4786 0.105474 18.2908 0.293221C18.1031 0.480968 17.9976 0.735608 17.9976 1.00112C17.9976 1.26664 18.1031 1.52128 18.2908 1.70902L24.5844 8.00014L0.999937 8.00014C0.734737 8.00014 0.480398 8.10548 0.292873 8.29299C0.10535 8.4805 -3.81811e-07 8.73482 -3.93403e-07 9Z" fill="white"/>
</svg>
