<svg width="69" height="72" viewBox="0 0 69 72" fill="none" xmlns="http://www.w3.org/2000/svg">
<rect width="68.3641" height="71.6572" rx="24" fill="#322F2F"/>
<path d="M41.598 35.0758L39.6 31L34.002 42.4529C33.714 43.0799 33.084 43.4672 32.4 43.4672C31.716 43.4672 31.086 43.0799 30.798 42.4529L27.684 36.0902H18V45.3115C18 47.3402 19.62 49 21.6 49H50.4C52.38 49 54 47.3402 54 45.3115V36.0902H43.2C42.516 36.0902 41.886 35.7029 41.598 35.0758Z" fill="white"/>
<path d="M50.4 20H21.6C19.62 20 18 21.6598 18 23.6885V32.9098H28.8C29.484 32.9098 30.114 33.2971 30.402 33.9242L32.4 38L37.998 26.5471C38.61 25.293 40.608 25.293 41.22 26.5471L44.316 32.9098H54V23.6885C54 21.6598 52.38 20 50.4 20Z" fill="white"/>
</svg>
