<svg width="69" height="72" viewBox="0 0 69 72" fill="none" xmlns="http://www.w3.org/2000/svg">
<rect width="68.3641" height="71.6572" rx="24" fill="#322F2F"/>
<path d="M50.9397 45.7787C48.7578 46.6892 46.5742 47.0356 44.3917 47.0356C37.4635 47.0362 30.5359 43.5469 23.6077 43.5469C21.8702 43.5469 20.1337 43.7663 18.3962 44.3147C18.201 44.3763 18.0053 44.4054 17.814 44.4054C16.846 44.4054 16 43.66 16 42.6252V24.8704C16 24.1636 16.4067 23.4937 17.0597 23.2217C19.2416 22.3106 21.4252 21.9642 23.6077 21.9642C30.5359 21.9642 37.4641 25.4535 44.3923 25.4535C46.1298 25.4535 47.8662 25.2341 49.6038 24.6857C49.799 24.6241 49.9947 24.595 50.186 24.595C51.154 24.595 52 25.3405 52 26.3752V44.1295C51.9994 44.8369 51.5928 45.5062 50.9397 45.7787ZM33.9997 29.1275C31.5141 29.1275 29.4998 31.5333 29.4998 34.4999C29.4998 37.4671 31.5146 39.8724 33.9997 39.8724C36.4848 39.8724 38.4996 37.4671 38.4996 34.4999C38.4996 31.5322 36.4842 29.1275 33.9997 29.1275Z" fill="white"/>
</svg>
