<svg width="69" height="72" viewBox="0 0 69 72" fill="none" xmlns="http://www.w3.org/2000/svg">
<rect width="68.3641" height="71.6572" rx="24" fill="#322F2F"/>
<path d="M34.042 30.5464C32.6988 30.5464 31.441 31.0675 30.4887 32.0199C29.5408 32.9722 29.0152 34.23 29.0152 35.5732C29.0152 36.9164 29.5408 38.1742 30.4887 39.1265C31.441 40.0744 32.6988 40.6 34.042 40.6C35.3851 40.6 36.643 40.0744 37.5953 39.1265C38.5432 38.1742 39.0687 36.9164 39.0687 35.5732C39.0687 34.23 38.5432 32.9722 37.5953 32.0199C37.1302 31.5511 36.5765 31.1795 35.9665 30.9266C35.3565 30.6736 34.7023 30.5444 34.042 30.5464ZM52.5633 41.1255L49.6254 38.6144C49.7646 37.7609 49.8365 36.8894 49.8365 36.0224C49.8365 35.1554 49.7646 34.2794 49.6254 33.4304L52.5633 30.9193C52.7852 30.7293 52.944 30.4762 53.0187 30.1938C53.0933 29.9113 53.0802 29.6129 52.981 29.338L52.9406 29.2212C52.1321 26.9603 50.9206 24.8645 49.3648 23.0355L49.284 22.9412C49.0951 22.719 48.8433 22.5594 48.5618 22.4832C48.2803 22.407 47.9824 22.4179 47.7072 22.5144L44.0596 23.8126C42.7119 22.7076 41.2115 21.8361 39.5853 21.2296L38.8801 17.4158C38.8269 17.1285 38.6875 16.8641 38.4805 16.6579C38.2735 16.4517 38.0086 16.3134 37.7211 16.2613L37.5998 16.2388C35.2639 15.8166 32.8021 15.8166 30.4662 16.2388L30.3449 16.2613C30.0574 16.3134 29.7925 16.4517 29.5855 16.6579C29.3785 16.8641 29.2391 17.1285 29.1859 17.4158L28.4762 21.2476C26.8654 21.8589 25.3649 22.7283 24.0334 23.8216L20.3588 22.5144C20.0837 22.4171 19.7855 22.4058 19.5039 22.4821C19.2223 22.5583 18.9705 22.7184 18.782 22.9412L18.7012 23.0355C17.1482 24.8665 15.937 26.9617 15.1254 29.2212L15.085 29.338C14.8828 29.8996 15.049 30.5285 15.5027 30.9193L18.4766 33.4574C18.3373 34.3019 18.2699 35.1644 18.2699 36.0179C18.2699 36.8804 18.3373 37.7429 18.4766 38.5785L15.5117 41.1166C15.2898 41.3065 15.1309 41.5596 15.0563 41.842C14.9817 42.1245 14.9948 42.423 15.0939 42.6978L15.1344 42.8146C15.9475 45.0742 17.1469 47.163 18.7101 49.0003L18.791 49.0947C18.9799 49.3168 19.2317 49.4765 19.5132 49.5527C19.7947 49.6288 20.0926 49.618 20.3678 49.5214L24.0424 48.2142C25.381 49.3148 26.8725 50.1863 28.4851 50.7882L29.1949 54.6201C29.2481 54.9074 29.3875 55.1717 29.5945 55.3779C29.8015 55.5841 30.0664 55.7225 30.3539 55.7746L30.4752 55.797C32.8341 56.2216 35.2499 56.2216 37.6088 55.797L37.7301 55.7746C38.0176 55.7225 38.2824 55.5841 38.4895 55.3779C38.6965 55.1717 38.8358 54.9074 38.8891 54.6201L39.5943 50.8062C41.2205 50.1953 42.7209 49.3283 44.0685 48.2232L47.7162 49.5214C47.9913 49.6187 48.2894 49.63 48.5711 49.5538C48.8527 49.4776 49.1045 49.3174 49.293 49.0947L49.3738 49.0003C50.9371 47.1541 52.1365 45.0742 52.9496 42.8146L52.99 42.6978C53.1832 42.1408 53.017 41.5164 52.5633 41.1255ZM34.042 43.4705C29.6801 43.4705 26.1447 39.9351 26.1447 35.5732C26.1447 31.2113 29.6801 27.6759 34.042 27.6759C38.4039 27.6759 41.9393 31.2113 41.9393 35.5732C41.9393 39.9351 38.4039 43.4705 34.042 43.4705Z" fill="white"/>
</svg>
