<svg width="65" height="20" viewBox="0 0 65 20" fill="none" xmlns="http://www.w3.org/2000/svg">
<path fill-rule="evenodd" clip-rule="evenodd" d="M0 0H64.397V20H0V0Z" fill="#F1F6FD"/>
<path fill-rule="evenodd" clip-rule="evenodd" d="M9.82355 6.37514C9.15372 6.37678 8.49937 6.5763 7.94294 6.94856C7.38652 7.32082 6.95293 7.84917 6.69682 8.46701C6.44071 9.08486 6.37354 9.76455 6.50377 10.4204C6.634 11.0763 6.9558 11.6791 7.42863 12.1527C7.73563 12.4777 8.10722 12.7351 8.51961 12.9086C8.932 13.082 9.37612 13.1676 9.82355 13.1599C10.2714 13.1704 10.7163 13.086 11.1291 12.9124C11.5419 12.7388 11.9132 12.4799 12.2185 12.1527C12.6913 11.6791 13.0131 11.0763 13.1433 10.4204C13.2736 9.76455 13.2064 9.08486 12.9503 8.46701C12.6942 7.84917 12.2606 7.32082 11.7042 6.94856C11.1477 6.5763 10.4934 6.37678 9.82355 6.37514Z" fill="#50525D"/>
<path fill-rule="evenodd" clip-rule="evenodd" d="M9.82346 5.77742V1.92574C8.47083 1.92716 7.14158 2.27795 5.96496 2.94399V8.799C6.18816 7.94321 6.6865 7.18417 7.3835 6.63835C8.08051 6.09253 8.93767 5.79007 9.82346 5.77742ZM8.99189 13.7022C8.13274 13.4827 7.37026 12.9862 6.82289 12.2897C6.27553 11.5932 5.97393 10.7357 5.96496 9.85047H1.9845C1.98282 11.204 2.34258 12.5336 3.02674 13.7022H8.99189ZM13.7152 10.7691C13.527 11.6282 13.0399 12.3929 12.3404 12.9274C11.6361 13.4909 10.7593 13.7957 9.85672 13.7907V17.5871C11.2107 17.596 12.5426 17.2445 13.7152 16.5688V10.7691ZM17.6735 9.72872C17.6749 8.37026 17.3111 7.0363 16.6202 5.86597H10.8103C11.675 6.07895 12.4432 6.57529 12.9919 7.27558C13.5407 7.97587 13.8383 8.83964 13.8372 9.72872H17.6735ZM19.4697 6.07626V10.6252H20.8446V6.07626H19.4697ZM28.0626 6.07626H26.6545V9.36347L23.9935 6.07626H21.8314V10.6252H23.2395V7.30481L25.8784 10.6252H28.0626V6.07626ZM30.3688 7.86928V7.16092H32.8525C33.1186 7.16092 33.2738 7.27161 33.2738 7.51511C33.2738 7.75861 33.1186 7.86928 32.8525 7.86928H30.3688ZM30.3688 8.799H32.8857C33.2184 8.799 33.3958 8.95396 33.3958 9.18639C33.3958 9.41882 33.2184 9.51843 32.8857 9.51843H30.3688V8.799ZM33.9945 8.32307V8.28988C34.1801 8.26094 34.3492 8.16673 34.4713 8.02424C34.6154 7.86929 34.6819 7.60365 34.6819 7.24947C34.6907 7.07225 34.657 6.89549 34.5837 6.73382C34.5105 6.57215 34.3997 6.43022 34.2606 6.31975C33.9945 6.14266 33.5732 6.07626 33.0077 6.07626H28.9607V10.6252H33.4512C33.9058 10.6252 34.2273 10.5588 34.438 10.4149C34.6487 10.2711 34.8261 9.8726 34.8261 9.42988C34.8261 8.98716 34.7706 8.799 34.6487 8.65511C34.5692 8.55691 34.4699 8.47657 34.3571 8.41935C34.2444 8.36213 34.1208 8.32932 33.9945 8.32307ZM41.39 6.07626H40.0151V8.71045C40.0208 8.92509 39.9544 9.13546 39.8266 9.30813C39.7157 9.46309 39.4718 9.51843 39.2057 9.51843H37.8197C37.5204 9.51843 37.343 9.46309 37.1988 9.30813C37.0547 9.15318 37.0436 8.97609 37.0436 8.71045V6.07626H35.6355V9.0093C35.6355 9.57377 35.7907 9.99435 36.0901 10.26C36.3894 10.5256 36.8662 10.6806 37.4982 10.6806H39.5272C40.1592 10.6806 40.636 10.5588 40.9354 10.26C41.2347 9.96115 41.39 9.57377 41.39 9.0093V6.07626ZM43.6962 8.28988V7.18307H45.9137C46.2796 7.18307 46.5346 7.24948 46.5346 7.67007V7.81394C46.5346 8.14599 46.3572 8.28988 46.0246 8.28988H43.6962ZM43.6962 9.46309H45.9137C46.1244 9.46309 46.2685 9.48522 46.3572 9.57377C46.4459 9.66231 46.4792 9.85047 46.4792 10.0829V10.6252H47.8873V9.85047C47.8873 9.51843 47.8208 9.25279 47.6766 9.09784C47.5244 8.95974 47.336 8.86763 47.1334 8.83221C47.3856 8.78786 47.6116 8.64937 47.7654 8.44483C47.8753 8.20952 47.9285 7.95174 47.9206 7.6922V7.42656C47.9206 6.97277 47.8208 6.65179 47.6434 6.4415C47.466 6.23121 47.0447 6.07626 46.5346 6.07626H42.2881V10.6252H43.6962V9.46309ZM51.8123 7.78075L50.4042 7.72541C50.3613 7.72649 50.3188 7.71568 50.2817 7.6942C50.2445 7.67271 50.214 7.64137 50.1935 7.60365C50.1488 7.54277 50.1254 7.46886 50.127 7.39336C50.127 7.16094 50.3155 7.03918 50.6703 7.03918H52.2226C52.5219 7.03918 52.7326 7.07239 52.8213 7.12773C52.91 7.18307 52.9211 7.30482 52.9211 7.51511H54.3181V7.37122C54.3181 6.88423 54.2294 6.56325 54.0188 6.37509C53.8081 6.18694 53.2759 5.98771 52.5552 5.98771H50.5816C49.7722 5.98771 49.2289 6.14267 48.9961 6.4083C48.7632 6.67394 48.7189 6.97278 48.7189 7.45977C48.7086 7.69999 48.7424 7.94007 48.8187 8.16813C48.8409 8.35629 48.9628 8.46696 49.118 8.58871C49.2733 8.71046 50.0383 8.86541 51.0916 8.86541L52.7659 8.92075C52.8137 8.91719 52.8617 8.92664 52.9046 8.94807C52.9476 8.9695 52.9839 9.00212 53.0098 9.0425L53.0652 9.27494C53.0728 9.3417 53.0599 9.40918 53.0282 9.46847C52.9965 9.52775 52.9476 9.57605 52.8878 9.60698L52.4665 9.67338H50.7257L50.2822 9.57377C50.1935 9.51843 50.127 9.37454 50.127 9.13105H48.7189V9.46309C48.7189 9.93902 48.8741 10.2711 49.1402 10.4481C49.4063 10.6252 49.8609 10.6806 50.5151 10.6806H52.2226C53.1539 10.6806 53.7859 10.592 54.052 10.4149C54.138 10.3726 54.2146 10.3137 54.2774 10.2414C54.3402 10.1692 54.388 10.0852 54.4179 9.99436C54.4823 9.75258 54.5122 9.50292 54.5066 9.25279C54.5066 8.88755 54.4734 8.65512 54.3847 8.47803C54.3544 8.37998 54.3043 8.28914 54.2376 8.21111C54.1709 8.13307 54.0889 8.06948 53.9966 8.02424C53.664 7.84715 52.9433 7.78075 51.8123 7.78075ZM59.1745 6.07626H57.3451L54.8614 10.6252H56.447L56.835 9.81726L57.3783 8.83221L58.2764 7.12773L59.1745 8.83221H57.3783L56.835 9.81726H59.7178L60.1281 10.6252H61.6914L59.1745 6.07626Z" fill="#50525D"/>
</svg>
