<svg width="43" height="20" viewBox="0 0 43 20" fill="none" xmlns="http://www.w3.org/2000/svg">
<path fill-rule="evenodd" clip-rule="evenodd" d="M0 0H42.4656V20H0V0Z" fill="#F1F6FD"/>
<path fill-rule="evenodd" clip-rule="evenodd" d="M2.05131 1.68227H40.5476V17.244H2.0624C2.05131 17.2551 2.04022 17.244 2.04022 17.2329V1.72655C2.04022 1.70441 2.04023 1.69334 2.05131 1.68227Z" fill="#055644"/>
<path fill-rule="evenodd" clip-rule="evenodd" d="M20.7004 5.877C21.2659 5.877 21.8646 5.85486 22.4079 5.88806V12.9163H20.6782V5.91021C20.6782 5.88807 20.6782 5.877 20.7004 5.877Z" fill="white"/>
<path fill-rule="evenodd" clip-rule="evenodd" d="M23.6499 5.87715H25.5348C25.6194 5.86575 25.7052 5.86575 25.7898 5.87715C25.823 5.88821 25.8341 5.92143 25.8785 5.95463C25.9228 5.98783 25.8896 5.98782 25.9007 5.99889L25.9228 6.0321C25.9561 6.06531 26.0004 6.15385 26.0337 6.19812H26.0559V6.23133H26.0781C26.0891 6.23133 26.0781 6.2424 26.0781 6.25346H26.1113C26.1113 6.26453 26.1002 6.27559 26.1113 6.27559L26.1667 6.34201C26.1778 6.35308 26.1668 6.35308 26.1778 6.36414L26.2 6.39735L26.2665 6.49696L26.3663 6.64085H26.3885C26.3885 6.65191 26.3774 6.66298 26.3885 6.66298C26.3996 6.66298 26.4107 6.67406 26.4107 6.67406V6.70725C26.4218 6.72939 26.455 6.74046 26.4661 6.76259C26.4772 6.78473 26.4772 6.78474 26.4883 6.78474L26.5105 6.829L26.5326 6.86221L26.5548 6.89542C26.5967 6.95123 26.6338 7.01047 26.6657 7.0725C26.6657 7.0725 26.6879 7.0725 26.6879 7.08357V7.1057H26.71C26.713 7.1057 26.7158 7.10687 26.7179 7.10894C26.72 7.11102 26.7211 7.11384 26.7211 7.11678C26.7211 7.11971 26.72 7.12253 26.7179 7.1246C26.7158 7.12668 26.713 7.12784 26.71 7.12784H26.7433C26.7433 7.13891 26.7322 7.14997 26.7433 7.14997C26.7544 7.14997 26.7655 7.16105 26.7655 7.17212C26.7625 7.17212 26.7597 7.17329 26.7576 7.17536C26.7556 7.17744 26.7544 7.18025 26.7544 7.18318C26.7544 7.18612 26.7556 7.18893 26.7576 7.19101C26.7597 7.19308 26.7625 7.19425 26.7655 7.19425L26.8209 7.24959C26.8345 7.26492 26.8423 7.28448 26.8431 7.30493L26.9983 7.51523H27.0205C27.0493 7.57898 27.0866 7.63855 27.1314 7.69231L27.2201 7.8362C27.2866 7.93582 27.3642 8.02436 27.4197 8.12397C27.586 7.94688 27.7412 7.73658 27.8964 7.54842L29.2935 5.79967H31.2005C31.2338 5.79967 31.2116 5.81074 31.2116 5.82181L30.8457 6.2424C30.7903 6.31987 30.7127 6.38629 30.6572 6.45269C30.6018 6.5191 30.6351 6.49697 30.6129 6.50803C30.5751 6.55134 30.5343 6.59202 30.4909 6.62978C30.4926 6.64538 30.4887 6.66107 30.4798 6.67406C30.4687 6.68512 30.4355 6.69618 30.4244 6.71832C30.4133 6.74045 30.4022 6.7626 30.3911 6.78474C30.3555 6.81146 30.3221 6.84106 30.2914 6.87327L30.2026 6.98395C30.1472 7.05036 30.0807 7.11677 30.0252 7.19425L29.9255 7.29386C29.9144 7.29386 29.9144 7.31599 29.9144 7.32706C29.871 7.36482 29.8302 7.40551 29.7924 7.44882L29.7591 7.50416L29.5596 7.71444L29.4709 7.82512L29.3822 7.92474C29.36 7.93581 29.36 7.95794 29.3378 7.98008C29.3156 8.00222 29.2491 8.05755 29.2158 8.10183C29.1826 8.1461 29.2158 8.13504 29.2048 8.13504C29.1743 8.17097 29.141 8.20429 29.105 8.23465C29.0829 8.27404 29.0569 8.31112 29.0274 8.34533L28.8278 8.55563C28.7958 8.58784 28.7695 8.62527 28.7502 8.66631C28.7145 8.69303 28.6811 8.72264 28.6504 8.75484C28.6416 8.76783 28.6376 8.78352 28.6393 8.79912L28.5173 8.92087C28.4952 8.93193 28.4952 8.95407 28.473 8.97621C28.4053 9.03867 28.3457 9.10932 28.2956 9.1865C28.8167 9.87272 29.36 10.5589 29.8922 11.2452L30.0252 11.4112C30.1068 11.5345 30.1956 11.6527 30.2914 11.7654L30.4022 11.8982C30.4006 11.9138 30.4045 11.9295 30.4133 11.9425L30.4466 11.9646L30.5907 12.1638L30.7238 12.3409L30.9899 12.684L31.0231 12.7062L31.0786 12.7836C31.0897 12.7947 31.1118 12.8168 31.1007 12.839H28.9608C28.9276 12.8279 28.9497 12.8279 28.9276 12.8058C28.9054 12.7836 28.9054 12.7947 28.9054 12.7836L28.7945 12.6065L28.6836 12.4516L28.5728 12.2856C28.5617 12.2745 28.5617 12.2634 28.5506 12.2413H28.5284C28.4757 12.1521 28.4164 12.0671 28.351 11.9867L28.1958 11.7432C28.1847 11.7322 28.1847 11.71 28.1736 11.6989H28.1514V11.6658L28.0849 11.6104C28.0805 11.5909 28.073 11.5722 28.0627 11.5551L28.0406 11.5219C28.0295 11.5108 28.0295 11.4887 28.0184 11.4776H27.9962C27.9435 11.3884 27.8842 11.3034 27.8188 11.223L27.2423 10.3486C27.209 10.3597 27.1868 10.3929 27.1646 10.4151L26.9429 10.6918C26.9237 10.7362 26.8975 10.7773 26.8653 10.8135L26.7655 10.9353L26.6102 11.1345L25.2576 12.8722H23.284C23.2174 12.8611 23.2951 12.8279 23.2951 12.8168L23.6388 12.4184L24.7586 11.1234C25.2687 10.5147 25.8341 9.87272 26.3663 9.26397C26.3552 9.2197 26.2998 9.1865 26.2776 9.15329C26.2736 9.1488 26.2706 9.14354 26.2687 9.13784C26.2668 9.13213 26.266 9.12609 26.2665 9.1201C26.2554 9.09796 26.2111 9.07582 26.1889 9.04261L26.1557 8.98727L26.1113 8.93193C26.0834 8.91163 26.0606 8.8851 26.0448 8.85446L25.9561 8.75484C25.9566 8.74885 25.9559 8.74281 25.954 8.7371C25.9521 8.7314 25.949 8.72614 25.945 8.72165L25.8563 8.62203L25.8341 8.58882L25.7676 8.51135C25.7343 8.47815 25.7232 8.43388 25.69 8.40067L25.6456 8.3564L25.5569 8.24572C25.5569 8.23984 25.5546 8.23421 25.5504 8.23006C25.5463 8.22591 25.5406 8.22358 25.5348 8.22358C25.5237 8.21252 25.5348 8.19038 25.5237 8.17931L25.4239 8.09076C25.4128 8.07969 25.4239 8.05755 25.4128 8.04649L25.3906 8.02435C25.3019 7.91367 25.1689 7.76979 25.0691 7.63697C25.0696 7.63098 25.0689 7.62494 25.067 7.61923C25.065 7.61352 25.062 7.60825 25.058 7.60376L25.0136 7.57057C25.0048 7.55758 25.0009 7.54189 25.0025 7.52629L24.9249 7.45989L24.8917 7.39348L24.7586 7.23852L24.6921 7.14997L24.5812 7.02823C24.5817 7.02223 24.581 7.0162 24.5791 7.01049C24.5772 7.00478 24.5741 6.99951 24.5701 6.99502L24.548 6.97289L24.3484 6.71832L23.672 5.86608C23.6609 5.89928 23.6388 5.89928 23.6499 5.87715Z" fill="white"/>
<path fill-rule="evenodd" clip-rule="evenodd" d="M17.086 9.61825C17.086 9.50757 17.1414 9.39688 17.1414 9.30834C17.1347 9.24857 17.1236 9.18938 17.1082 9.13125C17.086 8.98737 17.0638 8.86562 17.0527 8.75494C17.0416 8.64426 17.0195 8.50038 16.9973 8.3897C16.9751 8.27902 16.9197 8.10192 16.8975 7.99124C16.9007 7.95762 16.897 7.92371 16.8864 7.89163C16.8722 7.84924 16.8536 7.80842 16.831 7.76988C16.7866 7.68133 16.8531 7.54852 16.831 7.44891C16.8088 7.3493 16.7755 7.37143 16.7423 7.32715C16.709 7.28288 16.7423 7.30502 16.7312 7.29396C16.7201 7.28289 16.6757 7.23861 16.6757 7.19434C16.6702 7.14284 16.6702 7.09089 16.6757 7.03939C16.6646 6.99511 16.6203 6.97298 16.5981 6.9287C16.5941 6.92421 16.5911 6.91896 16.5891 6.91325C16.5872 6.90754 16.5865 6.90151 16.587 6.89551L16.5649 6.87336C16.5316 6.82909 16.5205 6.78482 16.4983 6.75162C16.4751 6.7101 16.4451 6.6727 16.4096 6.64094C16.3963 6.61999 16.3852 6.59774 16.3764 6.57453C16.3542 6.53026 16.3653 6.46385 16.3431 6.40851C16.3259 6.38413 16.3111 6.35818 16.2987 6.33103C16.2544 6.25355 16.2211 6.15394 16.1768 6.08753L16.0659 5.98792L15.9661 5.85511L15.8442 5.68909H15.8331C15.8071 5.65855 15.7848 5.62512 15.7665 5.58947C15.7111 5.52306 15.6335 5.47879 15.5781 5.41238C15.5694 5.40383 15.5629 5.39336 15.559 5.38182C15.5552 5.37029 15.5541 5.35801 15.5559 5.34598H15.5226C15.5243 5.33038 15.5203 5.31469 15.5115 5.3017C15.4894 5.25743 15.445 5.24636 15.4228 5.21315C15.4007 5.17995 15.3896 5.15782 15.3674 5.14675C15.3182 5.10968 15.2664 5.07638 15.2122 5.04713L15.0902 4.90326L15.0569 4.88111C15.0348 4.85898 15.0458 4.84791 15.0237 4.82577C15.0015 4.80364 15.0015 4.81471 14.9904 4.80364C14.9793 4.79257 14.9793 4.77043 14.9682 4.75937L14.8685 4.69296L14.813 4.64869L14.7354 4.59335L14.6356 4.52694L14.436 4.32771L14.3806 4.30558L14.3252 4.25024L14.303 4.21703C14.2284 4.17722 14.1505 4.14389 14.0701 4.11741L13.6155 3.89605L13.5379 3.84071C13.4825 3.82964 13.4271 3.85178 13.3716 3.82965C13.3162 3.80751 13.3605 3.80752 13.3494 3.80752L13.2496 3.75217C13.1959 3.70416 13.1312 3.66996 13.0612 3.65256H12.9725L12.7951 3.57509L12.54 3.53081L12.2629 3.47547C12.152 3.46441 12.0965 3.39799 12.0078 3.38692C11.9386 3.37226 11.8675 3.36853 11.7972 3.37586L11.3647 3.32052L11.1763 3.27624C11.0321 3.25411 10.8769 3.28731 10.7217 3.26518C10.5664 3.24304 10.5886 3.18771 10.5221 3.18771H10.4777L10.3114 3.2209L10.1451 3.27624C10.0786 3.27624 10.0231 3.2209 9.96771 3.20984L9.8901 3.24305H9.79031L9.40224 3.29839C9.2581 3.33159 9.10287 3.40906 8.98091 3.44226L8.8035 3.4976C8.70226 3.4999 8.6017 3.51477 8.50414 3.54188C8.45149 3.56317 8.40277 3.59311 8.36 3.63043L8.22695 3.7079L8.01628 3.78537C7.89432 3.82964 7.8167 3.90712 7.66148 3.89605C7.60764 3.95345 7.54822 4.00536 7.48408 4.05101L7.43972 4.07315C7.38429 4.11742 7.36211 4.17276 7.30667 4.1949H7.20689C7.18471 4.20597 7.15145 4.20596 7.12927 4.22809C7.1071 4.25023 6.97405 4.38305 6.89643 4.44946C6.81212 4.5148 6.72318 4.574 6.63033 4.62655L6.49727 4.70403L6.40857 4.75937H6.3864C6.35896 4.77553 6.33607 4.79838 6.31987 4.82577C6.31987 4.83684 6.2977 4.83685 6.2977 4.84792C6.28438 4.86887 6.27324 4.89112 6.26444 4.91432L6.209 4.98073L6.16464 5.04713L6.07594 5.11354L6.00942 5.17996L5.88745 5.27956L5.83202 5.31277C5.78766 5.35704 5.77658 5.43452 5.74332 5.46773L5.6657 5.48986L5.61026 5.52307C5.5643 5.6197 5.50455 5.70918 5.43286 5.7887C5.42852 5.79638 5.42198 5.80259 5.41408 5.80654C5.40617 5.81048 5.39727 5.81197 5.38851 5.81083C5.33307 5.86617 5.37743 6.04327 5.34416 6.12074C5.3109 6.19822 5.33307 6.14287 5.31089 6.16501C5.21486 6.28511 5.12601 6.41077 5.0448 6.54132C4.99235 6.558 4.94347 6.58428 4.90066 6.61881C4.88957 6.62988 4.88957 6.66308 4.87848 6.68521L4.82304 6.75162C4.81195 6.80696 4.81195 6.8955 4.80087 6.98405C4.78852 7.05725 4.78111 7.13121 4.77869 7.20541C4.78723 7.26032 4.79095 7.31587 4.78978 7.37143C4.76427 7.41777 4.73044 7.45903 4.68999 7.49317C4.64564 7.53745 4.61237 7.54852 4.5902 7.61493C4.56802 7.68134 4.61237 7.75881 4.5902 7.82522C4.56802 7.89162 4.53476 7.92484 4.53476 7.95804C4.53955 7.97625 4.54326 7.99473 4.54585 8.01338C4.56504 8.12669 4.57247 8.24166 4.56803 8.35649C4.56986 8.40472 4.56613 8.453 4.55694 8.50038L4.52367 8.54464C4.51259 8.56678 4.51259 8.59999 4.5015 8.62212C4.4707 8.65738 4.448 8.69893 4.43497 8.74387C4.42389 8.82135 4.43497 8.9099 4.42388 8.99844C4.42199 9.08368 4.41458 9.16871 4.40171 9.253C4.38939 9.28015 4.37454 9.3061 4.35736 9.33048L4.25757 9.48543C4.2951 9.59306 4.32111 9.70436 4.33518 9.81747C4.35306 9.8673 4.37533 9.91545 4.40171 9.96136C4.44043 10.0752 4.45551 10.1957 4.44606 10.3155C4.46823 10.5369 4.47932 10.7472 4.5015 10.9354C4.50967 11.0185 4.5283 11.1003 4.55694 11.1788C4.56939 11.2069 4.57689 11.2368 4.57911 11.2674L4.61237 11.2895C4.61963 11.3311 4.63076 11.3718 4.64564 11.4113C4.68999 11.533 4.73434 11.6216 4.78978 11.7433C4.83104 11.8111 4.86807 11.8813 4.90066 11.9536C4.90259 12.0169 4.91001 12.0798 4.92283 12.1418C4.96582 12.2152 5.01399 12.2855 5.06697 12.3521L5.15567 12.5513C5.18842 12.6343 5.22543 12.7156 5.26655 12.7948L5.3996 13.0272C5.4283 13.0904 5.47445 13.1442 5.53265 13.1822C5.592 13.2212 5.64446 13.2699 5.68788 13.3261L5.86528 13.5142C5.91689 13.5841 5.98075 13.6441 6.05377 13.6913C6.09812 13.7356 6.17573 13.7798 6.19791 13.8241C6.22008 13.8684 6.24226 13.8573 6.25334 13.8795C6.25334 13.8914 6.25724 13.9031 6.26444 13.9127L6.30878 13.9459C6.31598 13.9554 6.31987 13.9671 6.31987 13.9791C6.34205 14.0123 6.37531 14.0233 6.39749 14.0455L6.49727 14.134L6.58597 14.2115L6.73012 14.3554L6.79664 14.3886V14.4107C6.80773 14.4107 6.8299 14.4107 6.8299 14.4218L6.99622 14.5214L7.04057 14.5546L7.16253 14.5989C7.20688 14.6321 7.22906 14.6764 7.27341 14.7096L7.40646 14.7981L7.69474 14.9531L8.08281 15.108L8.13824 15.1523L8.20477 15.1744C8.24711 15.2055 8.2845 15.2428 8.31565 15.2851L8.38217 15.3072C8.50414 15.3736 8.70372 15.429 8.83677 15.4843C8.96982 15.5397 8.89221 15.5175 8.94765 15.5175C9.09307 15.4909 9.24309 15.5062 9.38006 15.5618C9.42451 15.5864 9.47359 15.6015 9.5242 15.6061C9.64926 15.6212 9.77545 15.6249 9.90118 15.6171C10.0342 15.6282 10.1673 15.6171 10.2892 15.6393L10.389 15.6614H10.511C10.5664 15.6835 10.6108 15.7278 10.6773 15.75C10.7294 15.7104 10.7902 15.6838 10.8547 15.6725C10.9509 15.6706 11.0472 15.6743 11.143 15.6835C11.3281 15.6874 11.5132 15.6801 11.6974 15.6614H11.9857L12.152 15.6061L12.7285 15.4511L13.1277 15.3072L13.294 15.2408C13.3386 15.2476 13.3842 15.2438 13.4271 15.2298L13.4492 15.2076H13.4825C13.5216 15.1809 13.5586 15.1513 13.5934 15.1191H13.6266L13.6599 15.0859L13.804 14.9863C13.8151 14.9863 13.8151 14.9752 13.8262 14.9641C13.8636 14.9391 13.9048 14.9204 13.9482 14.9088C14.0316 14.8727 14.1131 14.832 14.1921 14.787L14.2919 14.7206L14.3252 14.6874L14.3806 14.6653C14.4028 14.6542 14.4028 14.6321 14.4249 14.621L14.4804 14.5989C14.5691 14.5325 14.6134 14.4218 14.691 14.3997C14.7687 14.3775 14.7797 14.3997 14.8241 14.3775C14.8685 14.3554 15.0348 14.134 15.1345 14.0455H15.1789C15.19 14.0344 15.19 14.0123 15.2011 14.0012L15.2898 13.9348C15.2898 13.9289 15.2921 13.9233 15.2963 13.9191C15.3004 13.915 15.3061 13.9127 15.312 13.9127C15.345 13.8548 15.3821 13.7993 15.4228 13.7466H15.445C15.4561 13.7356 15.445 13.7245 15.4561 13.7134H15.4783C15.4894 13.7024 15.4783 13.6802 15.4894 13.6802C15.5004 13.6802 15.5337 13.647 15.5448 13.636C15.5443 13.63 15.545 13.6239 15.5469 13.6182C15.5488 13.6125 15.5519 13.6072 15.5559 13.6028L15.6446 13.5142H15.6889C15.7207 13.4861 15.7471 13.4523 15.7665 13.4146C15.8446 13.352 15.9119 13.2772 15.9661 13.1932L15.9994 13.0936C16.0153 13.0626 16.0339 13.033 16.0548 13.0051L16.077 12.9608C16.101 12.9198 16.1309 12.8825 16.1657 12.8501C16.1768 12.8391 16.1768 12.8169 16.1879 12.7948C16.199 12.7726 16.2433 12.7616 16.2544 12.7394C16.297 12.6896 16.3453 12.645 16.3985 12.6066C16.4344 12.4927 16.4867 12.3845 16.5538 12.2857L16.6203 12.1307C16.6581 12.0842 16.688 12.0318 16.709 11.9757C16.7312 11.8983 16.709 11.7987 16.7312 11.7212L16.7644 11.6437C16.8161 11.5437 16.8606 11.4401 16.8975 11.3338C16.9227 11.276 16.9449 11.2168 16.964 11.1567C16.9904 11.1012 17.0054 11.041 17.0084 10.9796C17.017 10.8682 17.0318 10.7573 17.0527 10.6476C17.0638 10.5148 17.1082 10.3709 17.1082 10.227C17.1082 10.0831 17.086 10.0499 17.086 9.96136C17.0702 9.84753 17.0702 9.73208 17.086 9.61825ZM15.8442 9.68466V9.8064C15.8442 9.87281 15.8663 9.95029 15.8663 10.0167C15.8663 10.0831 15.8331 10.2381 15.822 10.3487C15.8098 10.4071 15.8024 10.4663 15.7998 10.5258C15.7887 10.5812 15.7887 10.6476 15.7776 10.6918C15.7665 10.7361 15.7333 10.7804 15.7222 10.8247C15.7111 10.8689 15.7111 10.88 15.7 10.9021C15.6889 10.9243 15.6557 11.035 15.6224 11.1014C15.606 11.1429 15.5875 11.1835 15.567 11.2231C15.5448 11.3006 15.567 11.3891 15.5448 11.4555L15.5004 11.522C15.5004 11.5339 15.4966 11.5456 15.4894 11.5552H15.4672C15.4493 11.5945 15.4345 11.6352 15.4228 11.6769C15.3673 11.7457 15.3259 11.8246 15.3009 11.9093C15.3009 11.9425 15.2343 11.9536 15.2233 11.9757V12.009C15.2122 12.009 15.19 12.0089 15.19 12.02C15.19 12.0311 15.1789 12.0311 15.1789 12.0422C15.1085 12.1104 15.0487 12.1887 15.0015 12.2746L14.935 12.4185C14.9239 12.4185 14.935 12.4406 14.935 12.4406H14.9017C14.9017 12.4517 14.9017 12.4627 14.8906 12.4627L14.8241 12.5402C14.7934 12.5861 14.7561 12.6271 14.7132 12.662L14.6245 12.7173L14.5691 12.8058L14.5247 12.8391C14.522 12.8591 14.5144 12.8781 14.5026 12.8944C14.4678 12.9309 14.4379 12.9719 14.4138 13.0161H14.3806C14.3695 13.0493 14.3584 13.0493 14.3252 13.0715L14.2364 13.16L14.2032 13.2043H14.1699C14.1256 13.2375 14.0701 13.315 14.0147 13.3703C13.9593 13.4257 13.9593 13.3814 13.9149 13.3814C13.8479 13.4442 13.7776 13.5033 13.7043 13.5585L13.5601 13.6581H13.5158C13.5047 13.6692 13.4936 13.7024 13.4714 13.7024L13.416 13.7245L13.3605 13.7466L13.2607 13.7798C13.2063 13.8209 13.1545 13.8652 13.1055 13.9127L13.0168 13.9791L12.9392 14.0344C12.8814 14.0518 12.822 14.0629 12.7618 14.0676L12.5289 14.1672L12.152 14.3L11.9967 14.3222C11.9139 14.3546 11.8286 14.3805 11.7417 14.3997H11.4424L11.1652 14.4218C11.062 14.4124 10.9583 14.4087 10.8547 14.4107L10.7771 14.4329L10.6995 14.4661C10.6662 14.4661 10.6108 14.4218 10.5443 14.3997L10.3669 14.3665C10.1895 14.3443 9.95662 14.3775 9.79031 14.3554C9.62399 14.3332 9.63508 14.289 9.55747 14.2779H9.33572C9.31354 14.2779 9.31354 14.3 9.29136 14.289L9.26919 14.2668L8.95873 14.1451L8.91438 14.1229H8.84786C8.80608 14.0797 8.76164 14.039 8.7148 14.0012C8.69263 13.9791 8.64828 13.9791 8.61502 13.968L8.5374 13.9127L8.33783 13.8462L8.08281 13.6913L8.0052 13.6581L7.88323 13.5474L7.68365 13.4478C7.67257 13.4478 7.66148 13.4257 7.65039 13.4146L7.59495 13.3925L7.5506 13.3703V13.3482L7.4619 13.2707C7.36163 13.1948 7.26881 13.1096 7.18471 13.0161C7.17362 12.994 7.14036 12.9829 7.11819 12.9497C7.09601 12.9165 7.09601 12.9055 7.06275 12.8833L6.9186 12.7616C6.90752 12.7505 6.90752 12.7284 6.89643 12.7284H6.85208L6.8299 12.6841L6.70794 12.5402L6.58597 12.4185L6.50837 12.3742L6.45293 12.2635C6.41118 12.2037 6.37411 12.1408 6.34205 12.0754L6.27552 11.9204L6.15356 11.6769C6.12615 11.6561 6.10347 11.6297 6.08703 11.5994C6.07594 11.5552 6.07595 11.4998 6.06486 11.4445C6.0421 11.3823 6.01234 11.3229 5.97615 11.2674L5.78767 10.8025C5.76825 10.7416 5.75706 10.6783 5.7544 10.6144L5.72114 10.5258C5.71005 10.393 5.71005 10.2602 5.69896 10.1163C5.7008 10.046 5.6971 9.97572 5.68788 9.90602C5.67679 9.85068 5.63244 9.8064 5.62135 9.75106C5.61027 9.69572 5.61027 9.69573 5.59918 9.67359C5.60185 9.62461 5.59429 9.57561 5.577 9.5297C5.56591 9.47436 5.54374 9.47436 5.577 9.40796C5.58846 9.3956 5.59615 9.38024 5.59918 9.36368C5.62135 9.33048 5.65461 9.30835 5.6657 9.27514C5.67548 9.23534 5.67922 9.19429 5.67679 9.15338C5.69354 9.05447 5.69354 8.95346 5.67679 8.85455C5.76468 8.74897 5.81187 8.6155 5.80984 8.47823C5.80984 8.44503 5.78767 8.40076 5.78767 8.36755C5.7785 8.33141 5.77476 8.29411 5.77658 8.25687C5.77658 8.20153 5.80984 8.1794 5.82093 8.12406C5.83202 8.06872 5.79876 7.94698 5.84311 7.89163C5.88746 7.83629 5.95398 7.81415 5.96507 7.75881C5.97616 7.70347 5.96507 7.51532 5.97615 7.4157C5.98379 7.32475 6.0143 7.23718 6.06486 7.16113C6.07595 7.15006 6.06485 7.139 6.08703 7.12794C6.12217 7.11781 6.15575 7.10291 6.18682 7.08366C6.19791 7.07259 6.19791 7.05046 6.209 7.02832H6.23117L6.35314 6.8623L6.41966 6.78483C6.44183 6.71842 6.40858 6.64094 6.43075 6.56347C6.45293 6.48599 6.50836 6.48598 6.55271 6.43064C6.59706 6.3753 6.55272 6.41958 6.5638 6.40851L6.58597 6.3753L6.64141 6.27569C6.67467 6.26462 6.69685 6.23142 6.7412 6.23142C6.76427 6.1865 6.79419 6.14541 6.8299 6.10967C6.87152 6.07298 6.91602 6.03968 6.96296 6.01006L7.02948 5.94364C7.08182 5.89941 7.12674 5.84711 7.16253 5.7887L7.22906 5.68909L7.33994 5.63375L7.6393 5.45666L7.71691 5.37918C7.74426 5.32772 7.78202 5.28249 7.82779 5.24636H7.87214L7.90541 5.22422C7.93867 5.21315 7.97193 5.23529 7.99411 5.22422C8.0485 5.18712 8.10035 5.14645 8.14934 5.10247L8.21586 5.03607C8.23803 5.01393 8.26021 4.98073 8.28239 4.98073C8.30456 4.98073 8.37108 4.98073 8.41544 4.96966L8.52631 4.89218H8.59284L8.64828 4.87005C8.68154 4.84791 8.72589 4.84791 8.74806 4.82577C8.77024 4.80364 8.89221 4.72616 8.95873 4.69296L9.26919 4.64869L9.46876 4.57121C9.66834 4.50481 9.90118 4.4716 10.134 4.41626L10.2892 4.4716L10.4334 4.42732C10.4873 4.40986 10.5432 4.39871 10.5997 4.39411C10.5997 4.38305 10.6108 4.38305 10.6108 4.39411C10.6108 4.40518 10.6884 4.42732 10.7217 4.43839C10.8393 4.45328 10.9581 4.45698 11.0765 4.44946L11.2317 4.5048L11.4978 4.52694H11.7528C11.8193 4.53801 11.8526 4.58227 11.9191 4.60441H12.0189L12.1187 4.62655L12.3294 4.64869C12.3838 4.66403 12.436 4.68635 12.4846 4.71509L12.5733 4.73724H12.6731C12.7064 4.7483 12.7285 4.79257 12.7618 4.81471L12.8727 4.87005C12.9503 4.90325 13.0168 4.89218 13.0833 4.93645C13.105 4.94107 13.1245 4.95276 13.1388 4.96966L13.5601 5.16888C13.5712 5.19102 13.5934 5.19102 13.6045 5.20209L13.6266 5.2353L13.6821 5.25743C13.6932 5.2685 13.6932 5.29064 13.7043 5.29064C13.7153 5.29064 13.7375 5.31277 13.7486 5.32384L13.7708 5.35704L13.8262 5.37918C13.8373 5.39024 13.8373 5.41238 13.8484 5.41238C13.8595 5.41238 13.8816 5.42344 13.8927 5.44558L13.9703 5.50092V5.52307L14.0701 5.58947C14.1495 5.64963 14.2236 5.71627 14.2919 5.7887L14.3141 5.8219C14.3141 5.83387 14.318 5.84553 14.3252 5.85511C14.3584 5.88831 14.4139 5.88831 14.4582 5.92151C14.5026 5.95472 14.4693 5.94366 14.4693 5.95472L14.558 6.03219L14.6245 6.15394C14.6689 6.20928 14.7354 6.24249 14.7908 6.29783L14.8574 6.40851L15.0126 6.61881C15.0166 6.6233 15.0197 6.62855 15.0216 6.63426C15.0235 6.63997 15.0242 6.64601 15.0237 6.652H15.068C15.1085 6.70268 15.1421 6.75851 15.1678 6.81802C15.1838 6.84904 15.2023 6.87867 15.2233 6.90657C15.2454 6.97298 15.2454 7.03939 15.2676 7.09473C15.2898 7.15007 15.2898 7.11686 15.312 7.139L15.3674 7.23862C15.4117 7.30502 15.4561 7.39357 15.5115 7.47104C15.567 7.54852 15.5004 7.54852 15.5004 7.59279C15.5004 7.63706 15.5226 7.61493 15.5448 7.63706C15.567 7.6592 15.5559 7.68133 15.567 7.70347C15.5781 7.72561 15.6335 7.75882 15.6335 7.79202C15.6335 7.82522 15.6113 7.9359 15.6224 8.01338C15.6378 8.06768 15.6601 8.11977 15.6889 8.16834C15.7 8.21261 15.7 8.26794 15.7111 8.32328L15.7444 8.4561C15.7718 8.54327 15.794 8.63197 15.8109 8.72174C15.8053 8.76584 15.8053 8.81045 15.8109 8.85455C15.822 8.99844 15.8774 9.14233 15.8774 9.27514C15.8774 9.40796 15.8331 9.44116 15.8331 9.51864C15.8331 9.59611 15.8442 9.65145 15.8442 9.68466Z" fill="#FAA60A"/>
<path fill-rule="evenodd" clip-rule="evenodd" d="M14.2697 9.29727C14.2586 9.24193 14.2586 9.18658 14.2475 9.15338C14.218 9.10289 14.1847 9.05479 14.1477 9.0095C14.1366 8.98736 14.1366 8.95416 14.1255 8.94309C14.1144 8.93203 14.0035 8.87668 13.9703 8.84348C13.937 8.81027 13.8927 8.75494 13.8372 8.72173C13.762 8.6815 13.6786 8.65879 13.5933 8.65531C13.4932 8.65428 13.3932 8.64689 13.2939 8.63318C13.2052 8.59998 13.0944 8.64425 12.9946 8.64425L12.8283 8.62212H12.5954C12.396 8.63319 12.1961 8.63319 11.9967 8.62212C11.9634 8.62212 11.908 8.59998 11.8747 8.61105C11.8415 8.62212 11.8082 8.64425 11.7527 8.64425C11.7036 8.64884 11.6541 8.64124 11.6086 8.62212V8.59997C11.6086 8.58891 11.5864 8.58891 11.5864 8.57784C11.5621 8.5183 11.5544 8.45326 11.5643 8.38969C11.5421 8.13513 11.5643 7.82522 11.5643 7.61493C11.5643 7.40463 11.5421 7.42677 11.5421 7.33822C11.5421 7.24968 11.5532 7.00618 11.5532 6.91763C11.5403 6.82963 11.5329 6.74091 11.531 6.652C11.5405 6.57861 11.5442 6.5046 11.5421 6.43063L11.4977 6.31995C11.4925 6.28266 11.4851 6.2457 11.4756 6.20927C11.4454 6.15552 11.3988 6.11285 11.3425 6.08753C11.3033 6.03754 11.2542 5.99611 11.1984 5.96578C11.0885 5.918 10.973 5.88452 10.8546 5.86617C10.8325 5.84403 10.766 5.89937 10.7327 5.89937C10.6994 5.89937 10.6329 5.8551 10.5664 5.86617L10.4888 5.89937L10.389 5.93257L10.3224 5.97685C10.2227 6.02112 10.2227 6.04326 10.1561 6.12074C10.1173 6.15217 10.0836 6.18953 10.0563 6.23142C10.0453 6.24249 10.0453 6.27569 10.0342 6.29782L9.96764 6.43063C9.94226 6.50191 9.92732 6.57646 9.92329 6.652C9.92329 6.7184 9.94547 6.78482 9.94547 6.85123C9.94547 6.91763 9.92329 6.99511 9.92329 7.07259C9.92329 7.15006 9.94547 7.19433 9.94547 7.26074C9.94547 7.32715 9.92329 7.54852 9.92329 7.67027C9.92329 7.79202 9.94547 7.91376 9.94547 8.00231C9.94547 8.09085 9.93437 8.06872 9.93437 8.11299C9.95656 8.25973 9.95656 8.40897 9.93437 8.55571C9.83459 8.64426 9.71262 8.63318 9.57957 8.63318H9.40217L9.22477 8.61105L9.06954 8.63318L8.94758 8.61105C8.82567 8.59818 8.70258 8.6019 8.58168 8.62212H8.3821C8.27869 8.61655 8.17506 8.61655 8.07165 8.62212H7.98295L7.81663 8.64425C7.77228 8.65532 7.73902 8.6996 7.68358 8.72173C7.62743 8.73371 7.57193 8.74847 7.51726 8.76599C7.47291 8.78813 7.45074 8.83241 7.41747 8.86561C7.38565 8.90102 7.34819 8.93095 7.3066 8.95416C7.29551 9.0427 7.22899 9.09804 7.20681 9.17552C7.20125 9.2492 7.20125 9.3232 7.20681 9.39688C7.20595 9.48733 7.22095 9.57724 7.25116 9.66252C7.28282 9.74787 7.32372 9.82952 7.37313 9.90601C7.37313 9.92815 7.3953 9.92815 7.40639 9.95029C7.41748 9.97242 7.41748 9.99456 7.42856 10.0056C7.43965 10.0167 7.58379 10.0499 7.60596 10.1384C7.62814 10.227 7.73902 10.1716 7.79446 10.1827C7.85441 10.2098 7.91785 10.2284 7.98295 10.2381C8.07165 10.2381 8.17144 10.2048 8.27122 10.2048L8.50407 10.227L8.73691 10.2048L8.93648 10.227C9.04262 10.2086 9.15037 10.2012 9.25803 10.2048H9.41325C9.52413 10.1938 9.81241 10.1716 9.85676 10.2048L9.90111 10.2381C9.9122 10.2602 9.89003 10.2602 9.90111 10.2823C9.9122 10.3045 9.94547 10.3598 9.94547 10.393C9.95861 10.5258 9.95488 10.6596 9.93437 10.7915C9.91561 10.9271 9.9082 11.0641 9.9122 11.201C9.9122 11.2563 9.93437 11.3227 9.93437 11.3891C9.93437 11.4555 9.92329 11.4998 9.92329 11.5552V11.699C9.92329 11.7544 9.93437 11.8097 9.93437 11.8651C9.93437 11.9204 9.92329 11.9868 9.92329 12.0422C9.92329 12.0975 9.94547 12.1086 9.94547 12.1418C9.94803 12.2483 9.9706 12.3534 10.012 12.4517C10.0209 12.4741 10.0364 12.4934 10.0563 12.507C10.0674 12.5181 10.0563 12.5291 10.0674 12.5402L10.1118 12.5845L10.2227 12.6509L10.3335 12.7505L10.4998 12.8391C10.6107 12.8723 10.6551 12.8391 10.7881 12.8391H10.9988C11.0875 12.828 11.154 12.7505 11.2095 12.7284C11.2324 12.7131 11.2595 12.7054 11.2871 12.7062C11.2976 12.6782 11.3125 12.652 11.3314 12.6288C11.4044 12.5398 11.4676 12.4434 11.5199 12.341C11.531 12.2746 11.5643 12.2082 11.5753 12.1418C11.5826 12.0125 11.5789 11.883 11.5643 11.7544C11.5643 11.6548 11.5532 11.5552 11.5532 11.4666C11.5532 11.3781 11.5643 11.3117 11.5643 11.2452C11.5643 11.1788 11.5421 11.1235 11.5421 11.0571C11.5446 10.9866 11.552 10.9163 11.5643 10.8468C11.5586 10.8064 11.5586 10.7654 11.5643 10.7251C11.5643 10.6808 11.5864 10.6476 11.5864 10.6144C11.5864 10.5812 11.5753 10.559 11.5753 10.5258C11.5753 10.4926 11.5532 10.3045 11.6308 10.227C11.7049 10.2288 11.779 10.2251 11.8525 10.2159H12.0854C12.2073 10.2049 12.3293 10.2159 12.4513 10.2159C12.5732 10.2159 12.54 10.1938 12.5732 10.2048C12.6065 10.2159 12.7063 10.2381 12.7839 10.2381C12.8615 10.2381 13.0278 10.1938 13.1165 10.2048L13.3272 10.227C13.4688 10.2263 13.6099 10.2114 13.7485 10.1827C13.8443 10.1543 13.9344 10.1094 14.0146 10.0499C14.1033 10.0056 14.1033 10.0056 14.1366 9.91708L14.2253 9.75106C14.2622 9.68252 14.2849 9.60721 14.2918 9.52969C14.2968 9.45153 14.2893 9.37309 14.2697 9.29727ZM13.7707 9.57397C13.7707 9.59611 13.7374 9.61824 13.7153 9.64037C13.6931 9.66251 13.6377 9.70679 13.5157 9.72892L13.3826 9.7732H13.0722C12.8726 9.7732 12.6619 9.76213 12.4624 9.7732H11.8636C11.7567 9.76209 11.649 9.76209 11.5421 9.7732C11.4806 9.78297 11.4208 9.80162 11.3647 9.82854C11.3061 9.84189 11.25 9.8643 11.1984 9.89495C11.1873 9.89495 11.1984 9.91707 11.1873 9.92814H11.1651C11.1429 9.96135 11.1429 10.0056 11.1208 10.0499C11.0964 10.2185 11.0853 10.3887 11.0875 10.559C11.0875 10.7029 11.0764 10.8468 11.0764 10.9907C11.0764 11.1346 11.1097 11.5884 11.0875 11.8651C11.0771 11.9669 11.0548 12.0672 11.021 12.1639C10.9988 12.2082 10.9877 12.2635 10.9655 12.2967C10.9382 12.3323 10.9043 12.3623 10.8657 12.3853L10.6994 12.4074C10.5996 12.3963 10.5553 12.2856 10.4998 12.1971C10.439 12.0696 10.4123 11.9285 10.4222 11.7876C10.4111 11.4445 10.4111 11.0682 10.4111 10.7693C10.409 10.6843 10.4127 10.5993 10.4222 10.5148C10.4429 10.3503 10.4239 10.1834 10.3668 10.0278C10.3224 9.90601 10.3224 9.86174 10.1894 9.8064L10.1118 9.78427C9.94023 9.75084 9.76507 9.73967 9.59066 9.75106C9.5055 9.74895 9.4203 9.75265 9.33564 9.76212H8.80343L8.52624 9.78427L8.33775 9.76212L8.06056 9.73999C7.95967 9.71614 7.86512 9.67084 7.78337 9.60718C7.77228 9.58504 7.73902 9.56291 7.72793 9.55184C7.71888 9.53029 7.71147 9.50808 7.70576 9.48542C7.70576 9.45221 7.69466 9.41902 7.69466 9.39688C7.69466 9.37475 7.80555 9.25299 7.89425 9.20872L7.94969 9.17552L8.10491 9.15338L8.17144 9.13125H9.20259C9.43543 9.12018 9.67936 9.16445 9.9122 9.14231C10.0144 9.12695 10.1147 9.10099 10.2116 9.06484C10.239 9.06062 10.2647 9.04915 10.2862 9.03163C10.3076 9.01411 10.324 8.99118 10.3335 8.96523L10.3557 8.94309C10.3634 8.90886 10.3745 8.87548 10.389 8.84348C10.4333 8.72173 10.4222 8.4893 10.4222 8.27901C10.4222 8.06872 10.4333 7.95803 10.4333 7.81414C10.4333 7.67026 10.4222 7.60385 10.4222 7.4821V7.32715C10.4222 7.05044 10.4222 6.76268 10.5442 6.56346C10.5553 6.55239 10.5442 6.55238 10.5553 6.54131C10.5664 6.53025 10.6107 6.45277 10.6772 6.43063C10.7428 6.41423 10.8113 6.41423 10.8768 6.43063C10.9323 6.45277 10.9766 6.55239 11.021 6.62986C11.0653 6.70734 11.0764 7.09472 11.0764 7.30501V7.90269C11.0764 7.9359 11.0875 7.9691 11.0875 8.01337C11.0875 8.05765 11.0653 8.14618 11.0653 8.21259C11.0487 8.3671 11.0487 8.52295 11.0653 8.67746C11.0767 8.73847 11.0953 8.79791 11.1208 8.85454C11.1651 8.98736 11.1651 9.03163 11.2982 9.07591H11.3536C11.5975 9.16445 12.0854 9.10911 12.4069 9.12018H12.8393C12.8837 9.12018 12.917 9.09805 12.9613 9.10912H13.3161C13.3654 9.11371 13.4139 9.12487 13.4603 9.14231C13.5711 9.16445 13.6598 9.15339 13.7374 9.23086C13.7693 9.25899 13.7956 9.29277 13.8151 9.33048C13.8291 9.41432 13.8134 9.50043 13.7707 9.57397Z" fill="#FAA60A"/>
<path fill-rule="evenodd" clip-rule="evenodd" d="M9.28495 6.85071C9.27386 6.8175 9.28495 6.77323 9.27386 6.74003C9.26278 6.70682 9.21843 6.69575 9.19625 6.66254C9.17408 6.62934 9.18516 6.62934 9.17407 6.6072C9.11086 6.51026 9.03222 6.42428 8.94124 6.35264L8.78601 6.2973C8.72301 6.25748 8.65615 6.22411 8.58644 6.19769C8.50866 6.19586 8.43085 6.19956 8.3536 6.20875H8.33143C8.21701 6.21118 8.10558 6.2457 8.00989 6.30837L7.94337 6.34156C7.86914 6.39561 7.80208 6.45884 7.74379 6.52973C7.71834 6.53887 7.69551 6.55407 7.67727 6.574C7.65509 6.60721 7.65509 6.67361 7.63291 6.71788L7.59965 6.74003C7.59085 6.76323 7.57971 6.78548 7.56639 6.80643C7.54145 6.88123 7.53387 6.96071 7.54422 7.03886C7.52812 7.14986 7.53568 7.26301 7.56639 7.3709C7.57748 7.39304 7.59965 7.40411 7.59965 7.42624C7.60845 7.44945 7.6196 7.4717 7.63291 7.49265C7.644 7.52585 7.68835 7.55906 7.71053 7.59226L7.79923 7.70294C7.90755 7.82223 8.05133 7.90369 8.20946 7.93537L8.32034 7.95751C8.38202 7.97448 8.44715 7.97448 8.50883 7.95751C8.61039 7.94427 8.71057 7.92204 8.80819 7.8911L8.89689 7.82469L8.94124 7.80256L9.0632 7.71401C9.10755 7.69187 9.10755 7.69187 9.12972 7.65867C9.14411 7.62679 9.16276 7.59701 9.18516 7.57013C9.21206 7.52768 9.24169 7.487 9.27386 7.44837L9.30712 7.29343C9.32127 7.24248 9.33237 7.19074 9.34039 7.13847C9.32829 7.04143 9.30977 6.9453 9.28495 6.85071ZM8.33143 7.51479C8.25962 7.4907 8.19378 7.45157 8.13833 7.40003C8.08288 7.34849 8.03909 7.28573 8.00989 7.21595C7.98344 7.13741 7.97961 7.05306 7.99881 6.97245C7.99881 6.95032 8.02098 6.92818 8.03207 6.90605L8.05424 6.82856H8.0875C8.11609 6.8056 8.14211 6.77963 8.16512 6.75109L8.22056 6.71788C8.28016 6.68105 8.3505 6.66545 8.42013 6.67361C8.42013 6.67361 8.43122 6.65147 8.4423 6.66254L8.65296 6.72895L8.7084 6.75109C8.71949 6.76216 8.71949 6.7843 8.73058 6.80643C8.7746 6.83202 8.8095 6.87072 8.83037 6.91711C8.84007 6.95316 8.84381 6.99054 8.84145 7.02779C8.8556 7.05607 8.86674 7.08574 8.87471 7.11633C8.86668 7.17874 8.84604 7.23887 8.81404 7.29308C8.78204 7.34729 8.73935 7.39446 8.68855 7.43171C8.63776 7.46897 8.57991 7.49554 8.51852 7.50982C8.45714 7.5241 8.39349 7.52579 8.33143 7.51479Z" fill="#FAA60A"/>
<path fill-rule="evenodd" clip-rule="evenodd" d="M13.9641 7.02786C13.9581 6.95619 13.9432 6.88554 13.9197 6.81756L13.8865 6.72901C13.8559 6.66693 13.8146 6.61072 13.7645 6.56299C13.7104 6.48879 13.6512 6.41853 13.5871 6.35271H13.5538C13.495 6.32056 13.4314 6.29812 13.3654 6.28629L13.1879 6.24203C13.1219 6.25154 13.0551 6.25524 12.9884 6.2531C12.9551 6.2531 12.8997 6.21989 12.8997 6.24203L12.7112 6.3195L12.6336 6.35271C12.6114 6.37485 12.5781 6.36377 12.556 6.37484L12.5005 6.44125H12.4672L12.3453 6.57407C12.3249 6.60619 12.3064 6.63944 12.2898 6.67367C12.2511 6.71351 12.2242 6.76334 12.2122 6.81756C12.1659 6.96442 12.1583 7.1207 12.1901 7.27135L12.2233 7.42631C12.2425 7.47076 12.2687 7.51186 12.3009 7.54805L12.3453 7.64767C12.3844 7.70355 12.429 7.75545 12.4783 7.80263L12.6114 7.86903L12.7001 7.92437C12.8174 7.94595 12.9359 7.96073 13.0549 7.96865H13.1879C13.27 7.96688 13.3502 7.94401 13.4208 7.90224C13.48 7.88545 13.5362 7.85928 13.5871 7.82476L13.7202 7.72514C13.7589 7.69794 13.7927 7.66425 13.8199 7.62554C13.8199 7.61447 13.8421 7.61446 13.8421 7.60339C13.8827 7.54645 13.9127 7.48273 13.9308 7.41524C13.9419 7.31563 13.9752 7.20495 13.9752 7.13854C13.9756 7.10135 13.9719 7.06423 13.9641 7.02786ZM13.4873 7.19388C13.4867 7.24013 13.4753 7.28559 13.454 7.32669L13.4208 7.40418H13.3764L13.3099 7.45952C13.2728 7.48884 13.2299 7.50992 13.184 7.52137C13.1381 7.53282 13.0903 7.53438 13.0438 7.52592L12.8775 7.48165C12.8553 7.47058 12.8332 7.47058 12.811 7.44844C12.7633 7.41901 12.7249 7.37683 12.7001 7.32669C12.6422 7.23436 12.6187 7.12469 12.6336 7.0168C12.6483 6.94264 12.6828 6.87381 12.7334 6.81756C12.7966 6.75197 12.8774 6.70588 12.9662 6.68475C13.021 6.67342 13.0776 6.67342 13.1325 6.68475C13.2323 6.69582 13.2766 6.69582 13.3321 6.75116L13.3543 6.77329L13.4208 6.82863C13.4191 6.84423 13.4231 6.85992 13.4319 6.87291C13.4535 6.89848 13.4687 6.92884 13.4762 6.96145C13.4975 7.02191 13.5013 7.08708 13.4873 7.14961C13.4873 7.16067 13.5095 7.16067 13.4984 7.17174C13.4955 7.17027 13.4921 7.17004 13.4889 7.17108C13.4858 7.17211 13.4832 7.17434 13.4818 7.17728C13.4803 7.18021 13.4801 7.18361 13.4811 7.18672C13.4821 7.18983 13.4844 7.19241 13.4873 7.19388Z" fill="#FAA60A"/>
<path fill-rule="evenodd" clip-rule="evenodd" d="M37.3322 6.74062C36.8919 6.196 36.2626 5.83649 35.5692 5.73343C34.5159 5.54527 33.5291 5.8109 32.8971 6.24256L32.8417 6.26469C32.7973 6.28682 32.7641 6.34217 32.7308 6.3643L32.6864 6.38643C32.6558 6.41233 32.6224 6.43462 32.5866 6.45285V6.48605L32.4647 6.5746C32.3871 6.64101 32.3205 6.72955 32.254 6.79596L32.2208 6.82916C32.2097 6.84022 32.2097 6.87343 32.1986 6.8845L32.121 6.95091C32.0469 7.04527 31.9801 7.14517 31.9214 7.24975L31.8327 7.38256C31.8216 7.39363 31.8327 7.41577 31.8216 7.42683C31.8105 7.4379 31.7883 7.44898 31.7883 7.46004L31.7329 7.55966C31.5921 7.83936 31.4913 8.13742 31.4335 8.4451C31.4335 8.46724 31.4114 8.47831 31.4114 8.50044C31.3678 8.71193 31.3419 8.92663 31.3337 9.14238C31.3018 9.79479 31.4193 10.4459 31.6775 11.0461C32.121 12.0644 33.0302 12.7948 34.2276 13.0273C34.583 13.0855 34.9437 13.104 35.3031 13.0826C35.6667 13.0535 36.0268 12.9906 36.3786 12.8945L36.7113 12.7948L37.0106 12.6731L37.1548 12.6067C37.4209 12.5071 37.6315 12.3521 37.8755 12.2414C37.8458 12.1655 37.8047 12.0946 37.7535 12.0311C37.7424 12.009 37.7424 11.9869 37.7313 11.9647C37.7202 11.9426 37.5983 11.7323 37.5317 11.6438C37.5155 11.6058 37.497 11.5688 37.4763 11.5331L37.443 11.4777C37.4209 11.4445 37.4098 11.3892 37.3654 11.3781C36.9721 11.5846 36.5497 11.7302 36.1125 11.8098C35.665 11.881 35.2073 11.8546 34.7709 11.7323C34.5653 11.6816 34.3702 11.5955 34.1944 11.4777L34.1278 11.4335L34.0613 11.4003C34.0391 11.3892 34.028 11.3671 34.0059 11.3449C33.9083 11.2659 33.8157 11.1809 33.7287 11.0904C33.7176 11.0904 33.7287 11.0682 33.7176 11.0572L33.6843 11.035C33.6771 11.0254 33.6732 11.0138 33.6732 11.0018L33.5956 10.9133L33.4737 10.703C33.3164 10.3824 33.233 10.0306 33.2297 9.67366H38.0972C38.1416 8.40083 37.8865 7.42684 37.3322 6.74062ZM36.3675 8.62219H33.2186C33.2399 8.14315 33.4104 7.68269 33.7065 7.30509L33.7398 7.27188C33.8017 7.19726 33.8724 7.13038 33.9504 7.07266L33.9948 7.03945L34.0502 7.00626C34.3267 6.80811 34.6645 6.71401 35.0038 6.74062C35.0904 6.7436 35.1762 6.7585 35.2588 6.78489C35.3934 6.81127 35.5215 6.86392 35.6357 6.93984L35.7577 7.03945C35.8109 7.07781 35.8593 7.12241 35.9019 7.17228C36.1901 7.49325 36.3786 8.00238 36.3675 8.62219Z" fill="white"/>
<path fill-rule="evenodd" clip-rule="evenodd" d="M13.9149 11.5218C13.8928 11.4664 13.8928 11.4222 13.8706 11.3779C13.8544 11.3399 13.8358 11.303 13.8152 11.2672C13.8041 11.2561 13.8152 11.234 13.8152 11.2229L13.793 11.2008C13.7842 11.1776 13.773 11.1553 13.7597 11.1344L13.6932 11.0569L13.671 11.0237L13.6045 11.0016L13.5601 10.9573L13.4382 10.913C13.2818 10.857 13.1163 10.8307 12.9503 10.8355H12.7396C12.6817 10.8686 12.6261 10.9055 12.5733 10.9462C12.5161 10.9919 12.4526 11.0292 12.3848 11.0569C12.3558 11.1601 12.3026 11.255 12.2296 11.3336C12.207 11.3644 12.1884 11.3978 12.1742 11.4332C12.1586 11.4985 12.1549 11.5659 12.1631 11.6324C12.152 11.7058 12.152 11.7804 12.1631 11.8538C12.1631 11.9091 12.2074 11.9645 12.2185 12.0198C12.2403 12.0763 12.2516 12.1364 12.2518 12.1969L12.3848 12.3297C12.4309 12.377 12.4831 12.418 12.5401 12.4515L12.6953 12.5068C12.7867 12.5458 12.8843 12.5682 12.9836 12.5732H13.1388C13.2027 12.5637 13.2658 12.5489 13.3273 12.529C13.3922 12.5187 13.4556 12.5001 13.5158 12.4736C13.5601 12.4625 13.5934 12.4183 13.6267 12.3851C13.6879 12.3317 13.7436 12.2724 13.793 12.208C13.7925 12.202 13.7932 12.1959 13.7951 12.1902C13.797 12.1845 13.8 12.1793 13.8041 12.1748L13.8373 12.1527L13.8706 12.0752C13.9003 12.0282 13.9192 11.9753 13.926 11.9202C13.9233 11.8902 13.9271 11.8601 13.9371 11.8317C13.9514 11.728 13.9438 11.6224 13.9149 11.5218ZM13.4714 11.7985C13.4714 11.8317 13.4493 11.8538 13.4382 11.887L13.3495 12.0198C13.2703 12.0924 13.1685 12.1354 13.0612 12.1416C12.9715 12.1451 12.8827 12.122 12.8062 12.0752L12.7175 12.0198C12.7064 12.0088 12.7175 11.9866 12.7064 11.9756L12.662 11.9424C12.6475 11.9104 12.6364 11.877 12.6288 11.8427C12.6071 11.7596 12.6033 11.6729 12.6177 11.5882C12.6345 11.5517 12.657 11.5181 12.6842 11.4886C12.7064 11.4443 12.7064 11.4 12.784 11.3557C12.8316 11.3273 12.8843 11.3085 12.9392 11.3004C13.0666 11.2807 13.1969 11.296 13.3162 11.3447V11.3779C13.3716 11.4 13.3827 11.4443 13.416 11.5218C13.4658 11.6049 13.4854 11.7026 13.4714 11.7985Z" fill="#FAA60A"/>
<path fill-rule="evenodd" clip-rule="evenodd" d="M9.32467 11.5993C9.31563 11.5271 9.29699 11.4564 9.26923 11.389C9.24389 11.3327 9.21026 11.2805 9.16945 11.2341C9.15799 11.2217 9.1503 11.2064 9.14727 11.1898C9.08202 11.1285 9.01153 11.0729 8.93661 11.0238L8.859 10.9574L8.75921 10.9242C8.71486 10.9131 8.6816 10.8799 8.64834 10.8799C8.53857 10.8578 8.42549 10.8578 8.31572 10.8799L8.09397 10.9352L7.92766 11.0238C7.85465 11.0575 7.78732 11.1023 7.72809 11.1566C7.73103 11.1566 7.73385 11.1578 7.73593 11.1598C7.73801 11.1619 7.73918 11.1647 7.73918 11.1677C7.73918 11.1706 7.73801 11.1734 7.73593 11.1755C7.73385 11.1776 7.73103 11.1787 7.72809 11.1787H7.70592V11.2009C7.70592 11.2119 7.68374 11.2119 7.68374 11.2119C7.66619 11.2665 7.65138 11.3219 7.63939 11.378L7.59504 11.4444C7.56861 11.5038 7.55357 11.5676 7.55069 11.6325C7.55069 11.6989 7.56178 11.7875 7.56178 11.876C7.56178 11.9646 7.55069 11.9314 7.55069 11.9535C7.55884 12.0033 7.57376 12.0517 7.59504 12.0974C7.604 12.1144 7.60785 12.1336 7.60613 12.1527C7.68374 12.2855 7.82787 12.3298 7.90549 12.4626C7.9831 12.5954 8.08289 12.5622 8.17159 12.5844H8.30463C8.34898 12.5954 8.39333 12.6287 8.42659 12.6287L8.50421 12.5955L8.65943 12.5622L8.7703 12.529H8.80356L8.93661 12.4405L9.02531 12.4184L9.05857 12.3852L9.15836 12.2855H9.18053V12.2634L9.20271 12.2081L9.26923 12.1195C9.31358 12.031 9.30249 11.865 9.32467 11.7654C9.33923 11.7381 9.34684 11.7077 9.34684 11.6768C9.34684 11.6459 9.33923 11.6155 9.32467 11.5883V11.5993ZM8.78139 12.031H8.75921C8.67461 12.0967 8.57597 12.1422 8.47094 12.1638L8.29354 12.1417C8.23704 12.1165 8.1847 12.0829 8.13832 12.0421C8.09397 12.0088 8.04962 11.9756 8.03854 11.9424C8.02972 11.9295 8.02579 11.9138 8.02744 11.8982L8.00528 11.8539C7.99266 11.7654 7.99642 11.6754 8.01636 11.5883L8.06071 11.5218C8.07806 11.4951 8.0894 11.4649 8.09397 11.4333L8.16049 11.4112L8.23811 11.3448L8.4155 11.3115C8.47216 11.3069 8.52917 11.3143 8.58271 11.3334C8.63625 11.3525 8.68509 11.3828 8.72595 11.4222C8.77292 11.4556 8.81005 11.5009 8.83346 11.5535C8.85686 11.606 8.86568 11.6639 8.859 11.7211C8.859 11.8318 8.84791 11.9756 8.78139 12.031Z" fill="#FAA60A"/>
</svg>
