<svg width="12" height="7" viewBox="0 0 12 7" fill="none" xmlns="http://www.w3.org/2000/svg">
<path d="M10.872 0.292444C10.7795 0.199741 10.6696 0.126193 10.5486 0.0760116C10.4277 0.0258302 10.298 -3.79325e-08 10.167 -4.36573e-08C10.036 -4.93821e-08 9.90636 0.0258301 9.78539 0.0760116C9.66441 0.126193 9.55452 0.199741 9.46201 0.292444L5.58201 4.17244L1.70201 0.292444C1.51503 0.105466 1.26144 0.000422998 0.99701 0.000422987C0.732584 0.000422975 0.478986 0.105466 0.292008 0.292444C0.105031 0.479421 -1.05225e-05 0.733017 -1.0534e-05 0.997444C-1.05456e-05 1.26187 0.105031 1.51547 0.292008 1.70244L4.88201 6.29244C4.97452 6.38515 5.08441 6.4587 5.20538 6.50888C5.32636 6.55906 5.45604 6.58489 5.58701 6.58489C5.71798 6.58489 5.84766 6.55906 5.96863 6.50888C6.08961 6.4587 6.1995 6.38515 6.29201 6.29244L10.882 1.70244C11.262 1.32244 11.262 0.682444 10.872 0.292444Z" fill="#676F7D"/>
</svg>
