<svg width="266" height="118" viewBox="0 0 266 118" fill="none" xmlns="http://www.w3.org/2000/svg">
<mask id="mask0_24_364" style="mask-type:alpha" maskUnits="userSpaceOnUse" x="0" y="0" width="266" height="48">
<path d="M36.6007 11.0572H24.1288V47.4713H12.5128V11.0572H0V0H36.6823L36.6007 11.0572Z" fill="url(#paint0_linear_24_364)"/>
<path d="M59.5313 31.8881H54.882V47.3469H43.1558V0.0170941H63.7279C65.9128 -0.0838166 68.0955 0.262839 70.1436 1.03607C72.1917 1.80931 74.0626 2.99308 75.6434 4.51571C77.2243 6.03834 78.482 7.86818 79.3405 9.89455C80.199 11.9209 80.6406 14.1016 80.6383 16.3048C80.674 19.253 79.8512 22.1471 78.2717 24.6293C76.6923 27.1116 74.4252 29.0732 71.751 30.2717L81.9959 47.4713H68.1715L59.5313 31.8881ZM54.882 21.5683H63.6457C65.0316 21.5683 66.3606 21.0138 67.3405 20.0267C68.3205 19.0396 68.8709 17.7008 68.8709 16.3048C68.8709 14.9089 68.3205 13.5701 67.3405 12.583C66.3606 11.5959 65.0316 11.0414 63.6457 11.0414H54.882V21.5683Z" fill="url(#paint1_linear_24_364)"/>
<path d="M242.943 31.8881H238.294V47.3469H226.567V0.0170941H247.139C249.324 -0.0838166 251.507 0.262839 253.555 1.03607C255.603 1.80931 257.474 2.99308 259.055 4.51571C260.636 6.03834 261.894 7.86818 262.752 9.89455C263.611 11.9209 264.052 14.1016 264.05 16.3048C264.086 19.253 263.263 22.1471 261.683 24.6293C260.104 27.1116 257.837 29.0732 255.163 30.2717L265.408 47.4713H251.583L242.943 31.8881ZM238.294 21.5683H247.057C248.443 21.5683 249.772 21.0138 250.752 20.0267C251.732 19.0396 252.283 17.7008 252.283 16.3048C252.283 14.9089 251.732 13.5701 250.752 12.583C249.772 11.5959 248.443 11.0414 247.057 11.0414H238.294V21.5683Z" fill="url(#paint2_linear_24_364)"/>
<path d="M118.066 39.8427H99.6603L97.0549 47.3469H84.1538L101.888 0H116.049L133.783 47.4713H120.672L118.066 39.8427ZM114.368 28.9803L108.863 12.9354L103.358 29.0217L114.368 28.9803Z" fill="url(#paint3_linear_24_364)"/>
<path d="M181.253 23.6533C181.283 26.8405 180.668 30.0008 179.446 32.9434C178.223 35.886 176.419 38.5499 174.141 40.7744C171.863 42.9989 169.159 44.7379 166.192 45.8864C163.225 47.0348 160.056 47.569 156.877 47.4566H138.098V0.0161686H156.877C160.043 -0.101451 163.201 0.423622 166.159 1.55978C169.118 2.69593 171.816 4.41972 174.093 6.6276C176.37 8.83547 178.178 11.4818 179.409 14.4076C180.639 17.3335 181.266 20.4784 181.253 23.6533V23.6533ZM169.065 23.6533C169.065 20.3481 167.755 17.1782 165.422 14.841C163.09 12.5038 159.927 11.1909 156.628 11.1909H149.954V36.4065H156.628C158.286 36.407 159.928 36.0753 161.456 35.4309C162.984 34.7865 164.368 33.8424 165.527 32.6542C166.685 31.466 167.595 30.0576 168.203 28.5118C168.811 26.9661 169.104 25.3142 169.065 23.6533Z" fill="url(#paint4_linear_24_364)"/>
<path d="M220.094 36.2893V47.4713H187.727V0H219.767V11.1819H199.333V18.0823H217.519V29.098H199.333V36.2893H220.094Z" fill="url(#paint5_linear_24_364)"/>
</mask>
<g mask="url(#mask0_24_364)">
<rect x="-4.31543" y="-4.31555" width="274.039" height="56.1024" fill="url(#paint6_linear_24_364)"/>
</g>
<path d="M50.0908 100.919C50.1151 103.049 49.701 105.161 48.8741 107.123C48.0471 109.086 46.8251 110.858 45.2841 112.328C43.7431 113.799 41.9163 114.936 39.9168 115.67C37.9174 116.404 35.7884 116.719 33.6621 116.594H3.21582V59.0177H31.8532C33.8744 58.9502 35.8887 59.2903 37.7758 60.0175C39.6629 60.7447 41.3841 61.8443 42.8374 63.2506C44.2906 64.657 45.446 66.3414 46.2347 68.2036C47.0234 70.0658 47.4293 72.0677 47.4282 74.0901C47.4815 76.4693 46.945 78.8247 45.8667 80.9461C44.7885 83.0676 43.2017 84.8892 41.2483 86.2485C43.9628 87.6022 46.2361 89.7007 47.802 92.2986C49.3679 94.8965 50.1616 97.8865 50.0908 100.919ZM17.0822 71.9799V80.9731H28.1857C29.2963 80.8556 30.3242 80.3311 31.0712 79.5009C31.8182 78.6707 32.2316 77.5934 32.2316 76.4766C32.2316 75.3597 31.8182 74.2824 31.0712 73.4522C30.3242 72.6219 29.2963 72.0975 28.1857 71.9799H17.0822ZM35.3199 98.4069C35.3199 97.0744 34.7908 95.7965 33.8485 94.8543C32.9063 93.9121 31.6282 93.3828 30.2957 93.3828H17.2834V103.933H30.2957C31 103.937 31.6972 103.792 32.342 103.509C32.9868 103.226 33.5649 102.81 34.0387 102.289C34.5124 101.768 34.8713 101.153 35.092 100.484C35.3128 99.8154 35.3903 99.1077 35.3199 98.4069Z" fill="#444444"/>
<path d="M170.669 72.5317H155.346V116.593H140.977V72.5317H125.553V59.0167H170.77L170.669 72.5317Z" fill="#444444"/>
<path d="M182.878 59.0167H197.197V116.593H182.878V59.0167Z" fill="#444444"/>
<path d="M209.707 87.8059C209.664 83.8261 210.428 79.8788 211.951 76.2017C213.474 72.5247 215.726 69.194 218.571 66.4103C221.415 63.6267 224.794 61.4476 228.503 60.0044C232.213 58.5612 236.176 57.8838 240.154 58.0128C245.149 57.8889 250.097 59.0086 254.552 61.2712C259.007 63.5338 262.83 66.8685 265.676 70.9751L253.367 78.6118C251.891 76.4861 249.912 74.759 247.607 73.5842C245.301 72.4095 242.741 71.8238 240.154 71.8794C235.93 71.8794 231.879 73.5574 228.892 76.5443C225.905 79.5311 224.227 83.582 224.227 87.8059C224.227 92.0299 225.905 96.0809 228.892 99.0677C231.879 102.055 235.93 103.732 240.154 103.732C242.741 103.788 245.301 103.202 247.607 102.028C249.912 100.853 251.891 99.1257 253.367 97.0001L265.676 104.637C262.83 108.743 259.007 112.078 254.552 114.341C250.097 116.603 245.149 117.723 240.154 117.599C236.176 117.728 232.213 117.051 228.503 115.608C224.794 114.164 221.415 111.985 218.571 109.202C215.726 106.418 213.474 103.087 211.951 99.4102C210.428 95.7331 209.664 91.7858 209.707 87.8059V87.8059Z" fill="#444444"/>
<path d="M126.257 75.1943C125.686 75.194 125.124 75.3308 124.617 75.593C124.11 75.8553 123.673 76.2355 123.343 76.7016H121.082C120.984 75.7954 120.556 74.9569 119.879 74.3456C119.203 73.7343 118.326 73.3926 117.415 73.3856H117.113C115.43 67.3512 111.817 62.0337 106.828 58.2454C101.838 54.4572 95.7453 52.4064 89.4804 52.4064C83.2156 52.4064 77.123 54.4572 72.1333 58.2454C67.1436 62.0337 63.531 67.3512 61.8476 73.3856H61.0939H60.491C59.656 73.3946 58.8478 73.6808 58.193 74.1992C57.5382 74.7175 57.0742 75.4387 56.8738 76.2494H54.3114C53.9818 75.7833 53.545 75.4032 53.0379 75.1409C52.5308 74.8786 51.9682 74.7419 51.3973 74.7422C50.505 74.8471 49.6823 75.276 49.0852 75.9474C48.4881 76.6189 48.1582 77.4861 48.1582 78.3846C48.1582 79.2831 48.4881 80.1504 49.0852 80.8219C49.6823 81.4933 50.505 81.9222 51.3973 82.0272C51.9682 82.0274 52.5308 81.8907 53.0379 81.6284C53.545 81.3662 53.9818 80.986 54.3114 80.5199H56.8235C56.922 81.4261 57.35 82.2645 58.0262 82.8759C58.7023 83.4872 59.5795 83.8289 60.491 83.8358H60.9433C61.3849 88.2648 62.849 92.5306 65.2205 96.2971C67.592 100.064 70.8058 103.228 74.6088 105.54L90.7867 118L107.417 103.53C110.459 101.141 112.986 98.1597 114.842 94.7657C116.699 91.3718 117.848 87.6364 118.218 83.7856C118.94 83.6603 119.609 83.3274 120.145 82.8277C120.68 82.3281 121.058 81.6832 121.233 80.972H123.544C123.874 81.4381 124.31 81.8183 124.817 82.0806C125.325 82.3429 125.887 82.4796 126.458 82.4793C127.35 82.3743 128.173 81.9455 128.77 81.274C129.367 80.6026 129.697 79.7354 129.697 78.8369C129.697 77.9383 129.367 77.071 128.77 76.3996C128.173 75.7282 127.35 75.2993 126.458 75.1943H126.257ZM89.4301 63.0861C92.4211 63.0826 95.3658 63.825 97.9976 65.2462C100.629 66.6673 102.865 68.7224 104.503 71.2253L90.2841 85.1924L81.8939 77.3547L72.0968 85.2426C71.7752 83.8585 71.6068 82.4433 71.5945 81.0223C71.5944 76.2827 73.4701 71.7357 76.8121 68.3749C80.1541 65.0141 84.6906 63.1127 89.4301 63.0861ZM89.4301 98.9083C86.1804 98.9028 82.993 98.017 80.2064 96.3451C77.4198 94.6731 75.138 92.2775 73.604 89.4126L81.5925 82.9818L90.2841 91.1208L106.361 75.2445C106.987 77.1069 107.309 79.0577 107.316 81.0223C107.303 85.7619 105.414 90.3035 102.063 93.6549C98.7115 97.0063 94.1697 98.895 89.4301 98.9083Z" fill="url(#paint7_linear_24_364)"/>
<defs>
<linearGradient id="paint0_linear_24_364" x1="28.1231" y1="23.7356" x2="-3.3695" y2="41.4967" gradientUnits="userSpaceOnUse">
<stop stop-color="#63B03E"/>
<stop offset="1" stop-color="#89D665"/>
</linearGradient>
<linearGradient id="paint1_linear_24_364" x1="72.9332" y1="23.7356" x2="40.5349" y2="43.0823" gradientUnits="userSpaceOnUse">
<stop stop-color="#63B03E"/>
<stop offset="1" stop-color="#89D665"/>
</linearGradient>
<linearGradient id="paint2_linear_24_364" x1="256.345" y1="23.7356" x2="223.947" y2="43.0823" gradientUnits="userSpaceOnUse">
<stop stop-color="#63B03E"/>
<stop offset="1" stop-color="#89D665"/>
</linearGradient>
<linearGradient id="paint3_linear_24_364" x1="122.203" y1="23.7356" x2="86.7082" y2="50.8189" gradientUnits="userSpaceOnUse">
<stop stop-color="#63B03E"/>
<stop offset="1" stop-color="#89D665"/>
</linearGradient>
<linearGradient id="paint4_linear_24_364" x1="171.184" y1="23.7356" x2="137.277" y2="46.2333" gradientUnits="userSpaceOnUse">
<stop stop-color="#63B03E"/>
<stop offset="1" stop-color="#89D665"/>
</linearGradient>
<linearGradient id="paint5_linear_24_364" x1="212.542" y1="23.7356" x2="183.185" y2="38.3441" gradientUnits="userSpaceOnUse">
<stop stop-color="#63B03E"/>
<stop offset="1" stop-color="#89D665"/>
</linearGradient>
<linearGradient id="paint6_linear_24_364" x1="205.781" y1="23.7356" x2="183.162" y2="104.374" gradientUnits="userSpaceOnUse">
<stop stop-color="#63B03E"/>
<stop offset="1" stop-color="#89D665"/>
</linearGradient>
<linearGradient id="paint7_linear_24_364" x1="110.671" y1="85.2032" x2="60.0616" y2="131.12" gradientUnits="userSpaceOnUse">
<stop stop-color="#63B03E"/>
<stop offset="1" stop-color="#89D665"/>
</linearGradient>
</defs>
</svg>
