<svg width="171" height="27" viewBox="0 0 171 27" fill="none" xmlns="http://www.w3.org/2000/svg">
<path d="M126.123 0H89.0975V27H126.123V18.0952C126.269 17.9306 126.344 17.7165 126.333 17.4981C126.342 17.3915 126.328 17.2843 126.292 17.1836C126.256 17.0829 126.198 16.991 126.123 16.9139" fill="url(#paint0_radial_2_98)"/>
<path d="M92.4325 9.42404L91.7235 7.71058L91.0145 9.42404H92.4325ZM108.122 8.74904C107.962 8.8224 107.786 8.8537 107.61 8.83991H106.35V7.87933H107.623C107.794 7.86815 107.964 7.89477 108.122 7.95722C108.192 7.9921 108.25 8.04616 108.29 8.11293C108.33 8.1797 108.349 8.25633 108.346 8.33365C108.352 8.41665 108.334 8.49969 108.295 8.57319C108.255 8.64669 108.195 8.70765 108.122 8.74904ZM117.142 9.42404L116.42 7.71058L115.711 9.42404H117.142ZM100.336 11.2933H99.273V7.91828L97.7631 11.2933H96.844L95.3341 7.91828V11.2933H93.2071L92.8132 10.3327H90.6468L90.2398 11.2933H89.1107L90.9751 6.98366H92.5244L94.2969 11.0596V6.98366H95.9906L97.3561 9.90433L98.6034 6.98366H100.336V11.2933ZM104.59 11.2933H101.111V6.98366H104.59V7.87933H102.148V8.65817H104.525V9.54087H102.148V10.3976H104.59V11.2933ZM109.488 8.13894C109.494 8.38169 109.427 8.62081 109.297 8.82633C109.166 9.03186 108.977 9.19462 108.753 9.29423C108.955 9.36487 109.132 9.49094 109.265 9.65769C109.409 9.86539 109.435 10.0601 109.435 10.4365V11.2933H108.385V10.7481C108.385 10.4885 108.411 10.112 108.227 9.90433C108.044 9.69664 107.833 9.7226 107.466 9.7226H106.35V11.2933H105.313V6.98366H107.702C108.227 6.98366 108.621 6.99664 108.963 7.19135C109.133 7.28293 109.273 7.42094 109.366 7.58894C109.459 7.75694 109.501 7.94784 109.488 8.13894ZM111.155 11.2933H110.092V6.98366H111.155V11.2933ZM123.471 11.2933H122L120.018 8.06106V11.2933H117.904L117.497 10.3327H115.33L114.95 11.2933H113.729C113.217 11.2933 112.586 11.1764 112.219 10.813C111.851 10.4495 111.667 9.95625 111.667 9.16443C111.667 8.3726 111.772 7.94423 112.219 7.4899C112.665 7.03558 113.085 6.98366 113.807 6.98366H114.805V7.90529H113.821C113.44 7.90529 113.23 7.95721 113.02 8.16491C112.81 8.3726 112.718 8.68414 112.718 9.13846C112.718 9.59279 112.823 9.93029 113.007 10.151C113.19 10.3716 113.466 10.3716 113.742 10.3716H114.201L115.672 6.98366H117.234L118.994 11.0596V6.98366H120.569L122.407 9.98221V6.98366H123.471V11.2933ZM89.0975 12.137H90.8832L91.277 11.1764H92.183L92.5769 12.137H96.0694V11.3971L96.3845 12.137H98.1964L98.5115 11.3841V12.137H107.203V10.5663H107.374C107.492 10.5663 107.518 10.5793 107.518 10.774V12.137H112.022V11.7606C112.537 12.0218 113.11 12.1512 113.689 12.137H115.58L115.987 11.1764H116.88L117.274 12.137H120.924V11.2284L121.475 12.137H124.39V6.12692H121.501V6.84086L121.094 6.12692H118.14V6.84086L117.759 6.12692H113.755C113.085 6.12692 112.494 6.21779 112.022 6.4774V6.12692H109.251V6.4774C108.949 6.21779 108.542 6.12692 108.083 6.12692H97.9731L97.3035 7.68461L96.6077 6.12692H93.4172V6.84086L93.0758 6.12692H90.358L89.0975 8.98269V12.137Z" fill="white"/>
<path d="M126.123 15.3043H124.219C124.075 15.2908 123.929 15.3178 123.799 15.3822C123.751 15.4184 123.713 15.4657 123.687 15.5201C123.662 15.5744 123.651 15.6341 123.655 15.6937C123.651 15.7645 123.671 15.8345 123.711 15.8931C123.751 15.9517 123.81 15.9957 123.878 16.0183C124.006 16.0541 124.139 16.0673 124.272 16.0572L124.836 16.0832C125.414 16.0961 125.795 16.187 126.018 16.4207C126.057 16.4563 126.092 16.4954 126.123 16.5375V15.3043ZM126.123 18.1471C125.86 18.5106 125.375 18.6923 124.705 18.6923H122.696V17.7707H124.705C124.853 17.7874 125.002 17.7505 125.125 17.6668C125.2 17.5902 125.242 17.4879 125.243 17.3812C125.243 17.3271 125.232 17.2736 125.209 17.2243C125.187 17.175 125.153 17.1311 125.112 17.0957C125.006 17.02 124.874 16.9875 124.744 17.0048C123.773 16.9659 122.552 17.0308 122.552 15.6678C122.552 15.0447 122.959 14.3957 124.049 14.3957H126.123V13.5389H124.193C123.615 13.5389 123.195 13.6687 122.893 13.8894V13.5389H120.044C119.584 13.5389 119.059 13.6428 118.797 13.8894V13.5389H113.716V13.8894C113.308 13.5909 112.626 13.5389 112.311 13.5389H108.949V13.8894C108.634 13.5779 107.925 13.5389 107.492 13.5389H103.737L102.87 14.4476L102.07 13.5389H96.4632V19.5361H101.965L102.844 18.6014L103.684 19.5361H107.072V18.1341H107.413C107.86 18.1341 108.385 18.1212 108.858 17.9135V19.5361H111.654V17.9784H111.799C111.969 17.9784 111.982 17.9784 111.982 18.1471V19.5361H120.477C121.016 19.5361 121.58 19.4062 121.895 19.1596V19.5361H124.587C125.113 19.5533 125.636 19.4604 126.123 19.2635V18.1471ZM121.974 16.4207C122.171 16.6284 122.276 16.888 122.276 17.3423C122.276 18.2639 121.698 18.6923 120.648 18.6923H118.613V17.7707H120.635C120.787 17.7871 120.94 17.7503 121.068 17.6668C121.143 17.5902 121.185 17.4879 121.186 17.3812C121.186 17.3271 121.175 17.2736 121.152 17.2243C121.129 17.175 121.096 17.1311 121.055 17.0957C120.948 17.0223 120.817 16.99 120.687 17.0048C119.716 16.9659 118.495 17.0308 118.495 15.6678C118.495 15.0447 118.889 14.3957 119.978 14.3957H122.066V15.3043H120.162C120.017 15.2893 119.871 15.3164 119.742 15.3822C119.69 15.4151 119.647 15.4614 119.619 15.5163C119.592 15.5712 119.58 15.6326 119.584 15.6937C119.584 15.7657 119.606 15.836 119.649 15.8943C119.691 15.9527 119.752 15.9961 119.821 16.0183C119.948 16.059 120.081 16.0766 120.215 16.0702H120.779C121.344 16.0962 121.738 16.187 121.974 16.4207ZM112.586 16.1611C112.422 16.2344 112.241 16.2656 112.061 16.2519H110.801V15.2784H112.087C112.257 15.268 112.428 15.2946 112.586 15.3562C112.654 15.3962 112.709 15.4535 112.746 15.5222C112.783 15.5908 112.8 15.668 112.796 15.7457C112.801 15.827 112.784 15.9081 112.747 15.981C112.71 16.0538 112.655 16.1159 112.586 16.1611ZM113.203 16.6933C113.405 16.7645 113.583 16.8905 113.716 17.0567C113.86 17.2644 113.886 17.4591 113.886 17.8356V18.6923H112.849V18.1601C112.849 17.9005 112.875 17.511 112.678 17.3163C112.481 17.1216 112.298 17.1216 111.917 17.1216H110.801V18.6923H109.75V14.3957H112.153C112.691 14.3957 113.072 14.4086 113.414 14.5904C113.587 14.6823 113.73 14.8219 113.826 14.9922C113.921 15.1626 113.965 15.3566 113.952 15.551C113.96 15.7941 113.892 16.0337 113.758 16.2378C113.625 16.442 113.431 16.6009 113.203 16.6933ZM114.516 14.3957H117.996V15.2784H115.554V16.0572H117.93V16.9399H115.554V17.7966H117.996V18.6923H114.516V14.3957ZM107.505 16.3817H106.153V15.2784H107.518C107.886 15.2784 108.149 15.4341 108.149 15.8106C108.149 16.187 107.899 16.3817 107.505 16.3817ZM105.116 18.3029L103.527 16.5505L105.116 14.85V18.3029ZM100.993 17.7966H98.4326V16.9399H100.717V16.0572H98.4326V15.2784H101.045L102.188 16.5375L100.993 17.7966ZM109.265 15.8106C109.265 17.0048 108.372 17.2514 107.453 17.2514H106.153V18.6923H104.131L102.857 17.2644L101.518 18.6923H97.3954V14.3957H101.584L102.87 15.7976L104.197 14.3957H107.518C108.345 14.3957 109.265 14.6163 109.265 15.8106Z" fill="white"/>
<path d="M171 0H133.659V27H171V0Z" fill="#EC1C24"/>
<path d="M37.3406 0H0V27H37.3406V0Z" fill="#F1F6FD"/>
<path d="M82.0075 0H44.6669V27H82.0075V0Z" fill="#F1F6FD"/>
<path fill-rule="evenodd" clip-rule="evenodd" d="M63.2059 21.4442C65.2152 23.2676 67.8443 24.2776 70.5717 24.274C76.6375 24.274 81.548 19.3803 81.548 13.3572C81.548 7.33414 76.6375 2.42741 70.5717 2.42741C67.8443 2.42382 65.2152 3.43388 63.2059 5.25722C62.0656 6.28413 61.1543 7.53484 60.5303 8.92952C59.9064 10.3242 59.5835 11.8322 59.5822 13.3572C59.5804 14.8808 59.902 16.3878 60.5263 17.7808C61.1505 19.1738 62.0634 20.4218 63.2059 21.4442Z" fill="#E9B040"/>
<path fill-rule="evenodd" clip-rule="evenodd" d="M80.0906 19.4322C80.0906 19.3427 80.1265 19.2569 80.1906 19.1936C80.2546 19.1303 80.3414 19.0947 80.432 19.0947C80.4785 19.093 80.525 19.1003 80.5687 19.1164C80.6123 19.1324 80.6524 19.1568 80.6865 19.1881C80.7207 19.2195 80.7482 19.2572 80.7676 19.299C80.787 19.3409 80.7979 19.3862 80.7996 19.4322C80.8014 19.4804 80.7932 19.5285 80.7754 19.5734C80.7575 19.6183 80.7305 19.6591 80.696 19.6933C80.6615 19.7274 80.6202 19.7541 80.5748 19.7717C80.5294 19.7893 80.4807 19.7975 80.432 19.7957C80.3854 19.794 80.3396 19.7833 80.2973 19.7641C80.2549 19.7449 80.2168 19.7177 80.1851 19.6839C80.1534 19.6502 80.1287 19.6105 80.1125 19.5674C80.0963 19.5242 80.0888 19.4782 80.0906 19.4322ZM80.432 19.7178C80.5086 19.7178 80.582 19.6877 80.6362 19.6341C80.6904 19.5806 80.7208 19.508 80.7208 19.4322C80.7191 19.3964 80.7103 19.3613 80.6949 19.3288C80.6794 19.2964 80.6577 19.2673 80.6309 19.2432C80.604 19.2191 80.5726 19.2004 80.5385 19.1883C80.5044 19.1762 80.4682 19.1709 80.432 19.1726C80.3633 19.1758 80.2984 19.2041 80.2498 19.2522C80.2012 19.3002 80.1726 19.3644 80.1694 19.4322C80.1691 19.5037 80.1959 19.5726 80.2445 19.6255C80.2931 19.6784 80.36 19.7113 80.432 19.7178ZM80.3926 19.601H80.3269V19.2894H80.5239C80.5633 19.3154 80.5632 19.3284 80.5632 19.3673C80.5632 19.4063 80.5501 19.4452 80.5107 19.4452L80.5895 19.588H80.4845L80.4582 19.4582H80.3926V19.4192H80.4713C80.4845 19.4192 80.4845 19.4063 80.4845 19.3803C80.4845 19.3543 80.4845 19.3673 80.4713 19.3414H80.3926V19.601Z" fill="#E9B040"/>
<path fill-rule="evenodd" clip-rule="evenodd" d="M66.7641 12.2019C66.7247 11.7995 66.6459 11.4361 66.5671 11.0337H59.8579C59.9322 10.6466 60.0331 10.2649 60.1598 9.89134H66.252C66.1076 9.50192 65.9631 9.11249 65.7925 8.72307H60.6325C60.8193 8.32601 61.0298 7.94024 61.2627 7.56779H65.1491C64.8959 7.16838 64.6151 6.7867 64.3088 6.42548H62.0899C62.4345 6.0113 62.8074 5.62097 63.2059 5.25721C61.1878 3.43956 58.557 2.43064 55.8271 2.4274C49.7874 2.4274 44.8507 7.32115 44.8507 13.3572C44.8507 19.3933 49.7874 24.274 55.8271 24.274C58.5594 24.2834 61.1947 23.2728 63.2059 21.4442C63.6066 21.096 63.9756 20.7138 64.3088 20.3019H62.0899C61.7919 19.9284 61.5158 19.5383 61.2627 19.1336H65.1491C65.3917 18.7646 65.6068 18.3784 65.7925 17.9784H60.6325C60.4618 17.6019 60.2911 17.2255 60.1598 16.8361H66.252C66.377 16.4522 66.4822 16.0622 66.5671 15.6678C66.654 15.2822 66.7198 14.8922 66.7641 14.4995C66.7903 14.1231 66.8166 13.7466 66.8166 13.3572C66.8166 12.9678 66.7903 12.5784 66.7641 12.2019Z" fill="#CC2131"/>
<path fill-rule="evenodd" clip-rule="evenodd" d="M80.0906 15.8885C80.0888 15.8431 80.0963 15.7978 80.1127 15.7553C80.1291 15.7129 80.1539 15.6741 80.1858 15.6414C80.2177 15.6087 80.2559 15.5826 80.2982 15.5649C80.3405 15.5471 80.386 15.538 80.432 15.538C80.4796 15.5362 80.5271 15.544 80.5717 15.5609C80.6162 15.5777 80.6569 15.6032 80.6912 15.6359C80.7255 15.6687 80.7528 15.7079 80.7714 15.7513C80.7901 15.7947 80.7996 15.8413 80.7996 15.8885C80.7996 15.9849 80.7609 16.0773 80.6919 16.1455C80.623 16.2136 80.5295 16.2519 80.432 16.2519C80.3391 16.2453 80.2522 16.2042 80.1888 16.1367C80.1255 16.0693 80.0903 15.9805 80.0906 15.8885ZM80.432 16.1611C80.4693 16.1628 80.5065 16.1571 80.5415 16.1442C80.5765 16.1312 80.6085 16.1114 80.6355 16.086C80.6625 16.0605 80.684 16.0298 80.6987 15.9959C80.7133 15.9619 80.7209 15.9254 80.7208 15.8885C80.7191 15.8527 80.7103 15.8175 80.6949 15.7851C80.6795 15.7527 80.6577 15.7235 80.6309 15.6994C80.604 15.6753 80.5727 15.6567 80.5385 15.6446C80.5044 15.6325 80.4682 15.6271 80.432 15.6289C80.3633 15.632 80.2984 15.6604 80.2498 15.7084C80.2013 15.7564 80.1726 15.8206 80.1694 15.8885C80.1693 15.9586 80.1965 16.026 80.2454 16.0768C80.2943 16.1275 80.3611 16.1577 80.432 16.1611ZM80.3926 16.0442H80.3269V15.7457H80.5239C80.5633 15.7587 80.5633 15.7976 80.5633 15.8366C80.5604 15.8524 80.5543 15.8675 80.5452 15.8809C80.5362 15.8943 80.5245 15.9057 80.5107 15.9144L80.5895 16.0442H80.4845L80.4582 15.9274H80.3926V15.8755H80.432C80.4582 15.8755 80.4714 15.8755 80.4714 15.8495C80.4714 15.8236 80.4845 15.8365 80.4845 15.8236C80.4845 15.8106 80.4845 15.7976 80.4714 15.7976C80.4582 15.7976 80.4582 15.7976 80.432 15.7976H80.3926V16.0442Z" fill="white"/>
<path fill-rule="evenodd" clip-rule="evenodd" d="M70.4798 10.8519L70.2697 12.0462C69.8495 11.8385 69.5476 11.7476 69.2062 11.7476C68.3134 11.7476 67.6832 12.6173 67.6832 13.8245C67.6832 14.6683 68.1033 15.1745 68.8123 15.1745C69.1611 15.1568 69.5017 15.0638 69.8101 14.9019L69.6001 16.1611C69.2625 16.2587 68.9142 16.3154 68.5628 16.3298C67.2761 16.3298 66.4752 15.4082 66.4752 13.9284C66.4752 11.9553 67.5781 10.5663 69.1537 10.5663C69.3343 10.5682 69.5144 10.5855 69.692 10.6183L70.1778 10.7351L70.4798 10.8519ZM66.6459 11.6697H66.5277C66.1339 11.6697 65.9107 11.8644 65.543 12.4096L65.6612 11.7087H64.5714L63.8362 16.213H65.031C65.4643 13.4611 65.5824 12.9808 66.147 12.9808H66.2258C66.3139 12.5323 66.4687 12.0992 66.6853 11.6957L66.6459 11.6697ZM59.7791 16.1611C59.5042 16.2536 59.2161 16.3019 58.9257 16.3038C58.3217 16.3038 57.9804 15.9664 57.9804 15.3173C57.9811 15.1823 57.9943 15.0476 58.0198 14.9149L58.0854 14.4736L58.1511 14.1101L58.6631 11.0337H59.8316L59.7003 11.7087H60.3043L60.1599 12.812H59.5559L59.2277 14.6942C59.2176 14.7543 59.2133 14.8151 59.2146 14.876C59.2146 15.1096 59.3196 15.2005 59.6084 15.2005C59.7151 15.2112 59.8228 15.1979 59.9235 15.1615L59.7791 16.1611ZM55.21 13.1365C55.21 13.6947 55.4726 14.0971 56.1028 14.3957C56.7331 14.6942 56.6674 14.6942 56.6674 14.876C56.6674 15.0577 56.4573 15.2913 55.9847 15.2913C55.6234 15.2904 55.2646 15.2335 54.9212 15.1226L54.7505 16.1611H54.803L55.0131 16.2C55.1208 16.2243 55.2308 16.2374 55.3413 16.2389C55.5544 16.2684 55.7695 16.2814 55.9847 16.2779C57.232 16.2779 57.8228 15.8106 57.8228 14.7721C57.8228 14.149 57.5733 13.7986 56.9956 13.513C56.4179 13.2274 56.4179 13.2404 56.4179 13.0327C56.4179 12.825 56.628 12.6692 57.0088 12.6692C57.2943 12.6744 57.5792 12.696 57.8622 12.7341L58.0329 11.6957C57.6897 11.6414 57.3431 11.611 56.9956 11.6048C55.6564 11.6048 55.1838 12.2928 55.21 13.1236V13.1365ZM79.5655 16.213H78.4363L78.502 15.7846C78.3645 15.9391 78.1946 16.0622 78.0041 16.1451C77.8137 16.2281 77.6072 16.269 77.3991 16.2649C76.5325 16.2649 75.9548 15.538 75.9548 14.4087C75.9548 12.9159 76.8476 11.6308 77.898 11.6308C78.3707 11.6308 78.712 11.8385 79.0271 12.2538L79.2897 10.6832H80.4714L79.5655 16.213ZM77.8192 15.1615C78.3707 15.1615 78.7514 14.5255 78.7514 13.6428C78.7514 13.0587 78.5414 12.7601 78.1212 12.7601C77.7011 12.7601 77.189 13.3832 77.189 14.2659C77.189 14.863 77.3991 15.1615 77.8192 15.1615ZM63.416 16.1221C63.0172 16.2478 62.6004 16.3092 62.1818 16.3038C60.8558 16.3038 60.173 15.6159 60.173 14.2789C60.173 12.9418 61.0527 11.6048 62.2475 11.6048C63.2322 11.6048 63.8493 12.2409 63.8493 13.2274C63.8519 13.6085 63.8033 13.9883 63.7049 14.3567H61.3547C61.3347 14.397 61.3257 14.4418 61.3284 14.4865C61.3284 15.0058 61.696 15.2784 62.3788 15.2784C62.8077 15.2848 63.2315 15.1867 63.613 14.9928L63.416 16.1221ZM62.7596 13.4351V13.2144C62.7596 12.838 62.5495 12.6303 62.1818 12.6303C61.8142 12.6303 61.5385 12.9159 61.4335 13.4351H62.7596ZM50.6672 16.213H49.4986L50.1814 11.9553L48.6452 16.213H47.8312L47.7393 11.9942L47.0171 16.213H45.9142L46.8464 10.6832H48.5533L48.6058 14.1101L49.7481 10.6832H51.5994L50.6672 16.213ZM53.6082 14.201H53.3456C52.6891 14.201 52.3478 14.4476 52.3478 14.8889C52.3478 15.3303 52.4922 15.3433 52.7548 15.3433C53.2537 15.3433 53.5951 14.8889 53.6082 14.2139V14.201ZM54.4879 16.213H53.5032V15.7457C53.2012 16.1221 52.8073 16.2909 52.2559 16.2909C51.7044 16.2909 51.1661 15.7976 51.1661 15.0707C51.1661 13.9673 51.9276 13.3183 53.2537 13.3183L53.7526 13.3572C53.7801 13.2689 53.7934 13.177 53.792 13.0846C53.792 12.7861 53.5819 12.6692 53.0305 12.6692C52.6985 12.665 52.3674 12.7042 52.0458 12.7861L51.8751 12.838H51.7569L51.9276 11.8255C52.3905 11.6803 52.8731 11.6059 53.3587 11.6048C54.3829 11.6048 54.9212 12.0591 54.9212 12.9159C54.9166 13.2165 54.8859 13.5161 54.8293 13.8115L54.5667 15.4082L54.5273 15.6937V15.9144L54.501 16.0832V16.2L54.4879 16.213ZM72.3967 14.201H72.121C71.4382 14.201 71.0969 14.4476 71.0969 14.8889C71.091 14.9489 71.0984 15.0095 71.1186 15.0663C71.1388 15.1232 71.1712 15.175 71.2137 15.2183C71.2562 15.2615 71.3076 15.2951 71.3646 15.3166C71.4215 15.3382 71.4824 15.3473 71.5433 15.3433C72.0159 15.3433 72.3704 14.8889 72.3967 14.2139V14.201ZM73.2632 16.213H72.2785V15.7457C71.9765 16.1221 71.5827 16.2909 71.0312 16.2909C70.4798 16.2909 69.9546 15.7976 69.9546 15.0707C69.9546 13.9673 70.703 13.3183 72.0422 13.3183L72.5149 13.3572C72.5446 13.2691 72.5623 13.1774 72.5674 13.0846C72.5674 12.7861 72.3573 12.6692 71.8059 12.6692C71.4695 12.6649 71.134 12.7042 70.808 12.7861L70.6504 12.838H70.5323L70.703 11.8255C71.1661 11.6812 71.6485 11.6069 72.1341 11.6048C73.1582 11.6048 73.6834 12.0591 73.6834 12.9159C73.6858 13.2168 73.655 13.5172 73.5915 13.8115L73.342 15.4082L73.3026 15.6937L73.2764 15.9144L73.2501 16.0832V16.2L73.2632 16.213ZM76.4537 11.6697H76.3356C75.9417 11.6697 75.7053 11.8644 75.3508 12.4096L75.469 11.7087H74.3793L73.6571 16.213H74.8388C75.2721 13.4611 75.3902 12.9808 75.9548 12.9808H76.0336C76.1217 12.5323 76.2765 12.0992 76.4931 11.6957L76.4537 11.6697Z" fill="white"/>
<path d="M152.067 10.1899C157.621 10.1899 162.216 12.2798 163.135 15.0447C163.253 14.7197 163.316 14.3775 163.319 14.0322C163.319 10.787 158.277 8.1649 152.067 8.1649C145.857 8.1649 140.815 10.787 140.815 14.0322C140.825 14.3769 140.887 14.7181 140.999 15.0447C141.918 12.2798 146.513 10.1899 152.067 10.1899ZM152.067 6.69808C157.621 6.69808 162.216 8.78798 163.135 11.5529C163.255 11.2282 163.317 10.8858 163.319 10.5404C163.319 7.30817 158.277 4.67308 152.067 4.67308C145.857 4.67308 140.815 7.30817 140.815 10.5404C140.824 10.8851 140.886 11.2266 140.999 11.5529C141.918 8.78798 146.513 6.69808 152.067 6.69808ZM156.689 20.7303L154.378 17.8226H153.275V22.1582H154.325V19.3154L156.61 22.1582H157.739V17.8226H156.689V20.7303ZM139.384 21.2625C139.157 21.4179 138.885 21.4954 138.609 21.4832C138.247 21.4989 137.893 21.3729 137.625 21.1327C137.362 20.912 137.231 20.5096 137.231 19.9644C137.231 19.4192 137.362 19.0687 137.625 18.8481C137.904 18.6074 138.266 18.482 138.636 18.4976C138.903 18.4888 139.167 18.5564 139.397 18.6923C139.599 18.8118 139.749 19.0015 139.817 19.2245L140.933 19.0168C140.829 18.6997 140.627 18.4228 140.356 18.225C139.935 17.9135 139.371 17.7577 138.688 17.7577C138.005 17.7577 137.27 17.9524 136.784 18.3548C136.298 18.7572 136.062 19.3154 136.062 20.0293C136.062 20.7433 136.298 21.2495 136.784 21.6389C137.27 22.0284 137.874 22.236 138.622 22.236C139.144 22.2558 139.662 22.1346 140.119 21.8856C140.516 21.6387 140.814 21.2621 140.959 20.8211L139.857 20.5615C139.793 20.8452 139.624 21.0951 139.384 21.2625ZM163.792 17.8226V18.5625H165.459V22.1582H166.588V18.5625H168.256V17.8226H163.792ZM160.089 20.25H162.899V19.5231H160.089V18.5625H163.109V17.8226H158.947V22.1582H163.227V21.4312H160.089V20.25ZM151.332 20.6135C151.145 20.4706 150.942 20.3487 150.728 20.25C151.128 20.2268 151.512 20.0868 151.831 19.8476C151.95 19.7502 152.046 19.627 152.109 19.4875C152.173 19.348 152.204 19.1958 152.198 19.0428C152.2 18.7936 152.117 18.5512 151.962 18.3548C151.79 18.1544 151.562 18.0097 151.306 17.9394C150.875 17.8457 150.434 17.8064 149.993 17.8226H147.603V22.1582H148.745V20.3538H148.969C149.163 20.3445 149.357 20.362 149.546 20.4058C149.674 20.4373 149.791 20.4997 149.888 20.5875C150.101 20.7838 150.302 20.9918 150.492 21.2106L151.306 22.1582H152.658L151.975 21.3144C151.782 21.0628 151.566 20.8282 151.332 20.6135ZM149.586 19.6659H148.745V18.5625H150.452C150.61 18.5758 150.761 18.6345 150.885 18.7312C150.932 18.7769 150.969 18.8316 150.994 18.8918C151.019 18.9521 151.031 19.0167 151.03 19.0817C151.035 19.2011 150.993 19.3176 150.912 19.4062C150.833 19.5052 150.721 19.574 150.597 19.601C150.262 19.6483 149.924 19.67 149.586 19.6659ZM143.546 17.8226L141.366 22.1582H142.561L143.034 21.1846H145.279L145.765 22.1582H146.999L144.754 17.8226H143.546ZM143.375 20.4447L144.137 18.8351L144.911 20.4447H143.375Z" fill="white"/>
<path d="M13.0771 18.7313L14.9546 7.82741H17.9482L16.0706 18.7313H13.0771Z" fill="#005098"/>
<path d="M26.9682 8.1C26.1054 7.79192 25.194 7.63808 24.2767 7.64567C21.3094 7.64567 19.2217 9.12548 19.2086 11.2413C19.1824 12.812 20.6923 13.6817 21.8345 14.201C22.9768 14.7202 23.397 15.0707 23.397 15.551C23.3838 16.2909 22.4648 16.6154 21.5982 16.6154C20.3903 16.6154 19.7601 16.4466 18.7622 16.0442L18.3815 15.8755L17.9613 18.3159C18.6572 18.6144 19.957 18.874 21.3094 18.9C24.4605 18.9 26.5087 17.4332 26.5349 15.1745C26.5481 13.9284 25.7472 12.9937 24.0141 12.2149C22.9637 11.7086 22.3203 11.3711 22.3335 10.8649C22.3466 10.3586 22.8718 9.9173 24.0534 9.9173C24.8238 9.90496 25.5883 10.0508 26.2986 10.3457L26.5612 10.4625L26.9682 8.1Z" fill="#005098"/>
<path d="M34.6753 7.84039H32.3514C31.6424 7.84039 31.1041 8.0351 30.789 8.74904L26.3249 18.7313H29.476L30.1062 17.0957H33.9532C34.0451 17.4721 34.3208 18.7183 34.3208 18.7183H37.1043L34.6753 7.82741V7.84039ZM30.9728 14.85L32.1676 11.8125L32.5746 10.774L32.7715 11.7087L33.4674 14.85H30.9728Z" fill="#005098"/>
<path d="M10.5562 7.84038L7.61519 15.2784L7.30008 13.7596C6.74864 12.0202 5.04179 10.138 3.138 9.19038L5.82957 18.7183H9.00693L13.7336 7.84038H10.5562Z" fill="#005098"/>
<path d="M4.88421 7.84038H0.0393792L0 8.06105C3.7682 8.96971 6.26282 11.1505 7.30006 13.7596L6.24969 8.76202C6.06587 8.06106 5.54069 7.86634 4.88421 7.84038Z" fill="#F6A500"/>
<defs>
<radialGradient id="paint0_radial_2_98" cx="0" cy="0" r="1" gradientUnits="userSpaceOnUse" gradientTransform="translate(95.6321 4.34469) scale(34.7383 25.4149)">
<stop stop-color="#9DD5F6"/>
<stop offset="0.07" stop-color="#98D3F5"/>
<stop offset="0.16" stop-color="#89CEF3"/>
<stop offset="0.25" stop-color="#70C6EF"/>
<stop offset="0.35" stop-color="#4EBBEA"/>
<stop offset="0.45" stop-color="#23ADE3"/>
<stop offset="0.5" stop-color="#0DA6E0"/>
<stop offset="1" stop-color="#2E77BC"/>
</radialGradient>
</defs>
</svg>
