<svg width="103" height="106" viewBox="0 0 103 106" fill="none" xmlns="http://www.w3.org/2000/svg">
<g filter="url(#filter0_d_20_113)">
<rect x="20" y="12" width="62.9669" height="66" rx="24" fill="url(#paint0_linear_20_113)"/>
</g>
<path d="M44.2713 36.2689L47.5377 39.5211L45.5211 41.5377L42.2689 38.2713L39.0167 41.5377L37 39.5211L40.2664 36.2689L37 33.0167L39.0167 31L42.2689 34.2664L45.5211 31L47.5377 33.0167L44.2713 36.2689ZM66 51.4789L63.9834 49.4623L60.7311 52.7287L57.4789 49.4623L55.4623 51.4789L58.7287 54.7311L55.4623 57.9834L57.4789 60L60.7311 56.7336L63.9834 60L66 57.9834L62.7336 54.7311L66 51.4789ZM63.4295 38.1577L58.8565 44.0798L56.6126 42.2762L58.2742 40.1459C56.1549 40.5765 54.1778 41.5331 52.525 42.9278C50.8722 44.3225 49.5967 46.1105 48.8159 48.1273C50.052 49.0187 50.9288 50.3225 51.2883 51.8035C51.6478 53.2845 51.4662 54.8452 50.7762 56.2041C50.0863 57.563 48.9335 58.6306 47.5257 59.2143C46.118 59.798 44.5479 59.8595 43.0988 59.3876C41.6498 58.9156 40.417 57.9414 39.623 56.6406C38.829 55.3398 38.5259 53.7981 38.7685 52.2935C39.0112 50.789 39.7834 49.4206 40.9461 48.4353C42.1088 47.4501 43.5852 46.9127 45.1092 46.9202C45.4813 46.9217 45.8523 46.9597 46.2169 47.0338C47.2009 44.592 48.7719 42.4306 50.7909 40.7411C52.8098 39.0516 55.2144 37.8862 57.7914 37.3482L55.7605 35.8144L57.5642 33.5705L63.4295 38.1577ZM48.6596 53.311C48.6596 52.6088 48.4514 51.9223 48.0613 51.3385C47.6712 50.7546 47.1167 50.2995 46.4679 50.0308C45.8191 49.7621 45.1053 49.6918 44.4166 49.8288C43.7278 49.9657 43.0952 50.3039 42.5987 50.8004C42.1021 51.297 41.764 51.9296 41.627 52.6183C41.49 53.307 41.5603 54.0209 41.829 54.6697C42.0978 55.3184 42.5528 55.8729 43.1367 56.2631C43.7206 56.6532 44.407 56.8614 45.1092 56.8614C46.0508 56.8614 46.9539 56.4874 47.6197 55.8215C48.2856 55.1557 48.6596 54.2526 48.6596 53.311Z" fill="white"/>
<defs>
<filter id="filter0_d_20_113" x="0" y="0" width="102.967" height="106" filterUnits="userSpaceOnUse" color-interpolation-filters="sRGB">
<feFlood flood-opacity="0" result="BackgroundImageFix"/>
<feColorMatrix in="SourceAlpha" type="matrix" values="0 0 0 0 0 0 0 0 0 0 0 0 0 0 0 0 0 0 127 0" result="hardAlpha"/>
<feMorphology radius="2" operator="erode" in="SourceAlpha" result="effect1_dropShadow_20_113"/>
<feOffset dy="8"/>
<feGaussianBlur stdDeviation="11"/>
<feColorMatrix type="matrix" values="0 0 0 0 0.308247 0 0 0 0 0.308247 0 0 0 0 0.308247 0 0 0 0.3 0"/>
<feBlend mode="normal" in2="BackgroundImageFix" result="effect1_dropShadow_20_113"/>
<feBlend mode="normal" in="SourceGraphic" in2="effect1_dropShadow_20_113" result="shape"/>
</filter>
<linearGradient id="paint0_linear_20_113" x1="68.2746" y1="45" x2="20.288" y2="78.4136" gradientUnits="userSpaceOnUse">
<stop stop-color="#63B03E"/>
<stop offset="1" stop-color="#89D665"/>
</linearGradient>
</defs>
</svg>
