<svg width="65" height="20" viewBox="0 0 65 20" fill="none" xmlns="http://www.w3.org/2000/svg">
<path fill-rule="evenodd" clip-rule="evenodd" d="M0 0H64.4081V20H0V0Z" fill="#F1F6FD"/>
<path d="M10.1453 8.2456C10.1221 7.85588 10.0082 7.47692 9.81268 7.13879L8.06083 4.08401C7.92599 3.84968 7.82872 3.59573 7.77255 3.33138L7.69494 3.4642C7.48203 3.83677 7.37004 4.25828 7.37004 4.68721C7.37004 5.11614 7.48203 5.53767 7.69494 5.91024L9.11415 8.35628C9.33141 8.72738 9.44591 9.14948 9.44591 9.57931C9.44591 10.0091 9.33141 10.4312 9.11415 10.8023L9.03654 10.9241C8.97844 10.6638 8.88125 10.4138 8.74827 10.1825L7.4621 7.94677L6.64162 6.49684C6.50863 6.26557 6.41144 6.01556 6.35334 5.75528L6.27572 5.8881C6.06271 6.25862 5.95063 6.67838 5.95063 7.10558C5.95063 7.53279 6.06271 7.95254 6.27572 8.32307L7.69494 10.7691C7.9122 11.1402 8.02669 11.5623 8.02669 11.9921C8.02669 12.422 7.9122 12.8441 7.69494 13.2152L7.61732 13.348C7.56 13.0891 7.4667 12.8395 7.34013 12.6064L5.55502 9.54056C5.32985 9.13043 5.21523 8.66896 5.22239 8.20133C3.3375 8.68832 2.01807 9.73979 2.01807 10.9573C2.01807 12.6507 4.54605 14.0121 7.67276 14.0121C10.7995 14.0121 13.3164 12.6507 13.3164 10.9573C13.3385 9.79513 12.0524 8.74366 10.1453 8.2456ZM15.4785 13.4808C15.4918 13.1105 15.5628 12.7446 15.6891 12.3961C16.2982 12.6603 16.9543 12.7995 17.6184 12.8056C18.6052 12.8056 19.1706 12.4957 19.1706 11.8538C19.1706 11.2118 18.7604 10.9573 17.7736 10.5146L17.2414 10.3153C16.2324 9.8726 15.5561 9.30813 15.5561 8.20133C15.5561 7.09452 16.4098 6.22014 18.1173 6.22014C18.7734 6.21224 19.426 6.31707 20.0466 6.53005C20.0292 6.88906 19.9582 7.24346 19.8359 7.58152C19.2731 7.38243 18.6811 7.27771 18.084 7.2716C17.1638 7.2716 16.7424 7.63685 16.7424 8.20133C16.7424 8.7658 17.1638 9.07571 17.9066 9.38562L18.4721 9.61804C19.8137 10.1825 20.3792 10.8023 20.3792 11.8317C20.3792 13.0381 19.4589 13.8903 17.6516 13.8903C16.7979 13.8903 16.0772 13.7575 15.4785 13.4808ZM26.0782 8.40056V13.7132H25.0027L24.9473 13.0602C24.6368 13.5251 24.1933 13.835 23.4505 13.835C22.0534 13.835 21.0999 12.8056 21.0999 11.0347C21.0999 9.26386 22.1089 8.10171 24.0714 8.10171C24.8475 8.12385 25.4906 8.20133 26.0782 8.40056ZM24.9251 12.4957V9.17532C24.6424 9.13577 24.3567 9.12095 24.0714 9.13105C22.8628 9.13105 22.2863 9.87261 22.2863 11.0569C22.2863 12.2412 22.7298 12.9053 23.7609 12.9053C24.1823 12.8935 24.5894 12.7503 24.9251 12.4957ZM32.0656 10.1604V13.7132H30.9014V10.3596C30.9014 9.50736 30.6242 9.13105 29.46 9.13105C29.1479 9.13112 28.8364 9.15703 28.5286 9.20852V13.7132H27.3755V8.40056C28.0653 8.22783 28.7714 8.12766 29.4821 8.10171C31.4447 8.12385 32.0656 8.86542 32.0656 10.1604ZM35.3142 12.861C35.6207 12.8666 35.9255 12.8141 36.2123 12.706C36.1902 13.0159 36.1347 13.3701 36.0904 13.68C35.7762 13.8028 35.4409 13.863 35.1036 13.8571C33.9726 13.8571 33.2519 13.348 33.2519 12.0641V6.47471C33.6235 6.35115 34.0134 6.29127 34.4051 6.29762V8.30094H36.2678C36.2456 8.66619 36.2123 8.99823 36.168 9.30813H34.4051V11.9091C34.4051 12.5732 34.7488 12.861 35.3142 12.861ZM41.5787 8.40056V13.7132H40.4922L40.4478 13.0602C40.1374 13.5251 39.6939 13.835 38.951 13.835C37.5539 13.835 36.6004 12.8056 36.6004 11.0347C36.6004 9.26386 37.6094 8.10171 39.5719 8.10171C40.2518 8.10345 40.9279 8.20412 41.5787 8.40056ZM40.3924 12.4957V9.17532C40.1096 9.13577 39.824 9.12095 39.5386 9.13105C38.3301 9.13105 37.7646 9.87261 37.7646 11.0569C37.7646 12.2412 38.197 12.9053 39.2282 12.9053C39.6504 12.8981 40.0589 12.7544 40.3924 12.4957ZM47.555 10.1604V13.7132H46.3686V10.3596C46.3686 9.50736 46.0914 9.13105 44.9272 9.13105C44.6188 9.13163 44.3111 9.15754 44.0069 9.20852V13.7132H42.8427V8.40056C43.5363 8.22778 44.2461 8.12762 44.9605 8.10171C46.9119 8.12385 47.555 8.86542 47.555 10.1604ZM53.4647 6.29762V13.7132H52.3781L52.3338 13.0381C52.0233 13.5251 51.5798 13.835 50.8037 13.835C49.4177 13.835 48.4642 12.8056 48.4642 11.0347C48.4642 9.26386 49.4731 8.10171 51.4246 8.10171C51.7184 8.09851 52.0118 8.12447 52.3005 8.17919V6.41937C52.6816 6.3285 53.073 6.28758 53.4647 6.29762ZM52.3005 12.4957V9.23066C51.9973 9.17016 51.6893 9.13682 51.3802 9.13105C50.216 9.13105 49.6727 9.85047 49.6727 11.0569C49.6727 12.2633 50.1162 12.9053 51.1474 12.9053C51.5647 12.8898 51.9672 12.7468 52.3005 12.4957ZM59.3411 11.4443H55.6046C55.7598 12.3961 56.3031 12.8278 57.3564 12.8278C58.0008 12.8372 58.6384 12.697 59.2192 12.4183C59.1637 12.7282 59.1083 13.1377 59.0307 13.4808C58.4842 13.7125 57.8946 13.8257 57.301 13.8128C55.3496 13.8128 54.4182 12.7282 54.4182 10.9241C54.4182 9.3524 55.1389 8.10171 57.0016 8.10171C58.6759 8.10171 59.3966 9.17532 59.3966 10.5146C59.4074 10.8255 59.3889 11.1368 59.3411 11.4443ZM55.6046 10.4592H58.2324C58.2324 9.58484 57.7667 9.07571 56.9684 9.07571C56.1701 9.07571 55.6822 9.5627 55.6046 10.4592ZM63.4436 8.17919C63.4386 8.51346 63.4052 8.84669 63.3438 9.17532C63.0555 9.15318 62.8005 9.13105 62.4678 9.13105C62.1352 9.13105 61.8913 9.15318 61.6141 9.17532V13.7132H60.4499V8.40056C60.9378 8.22347 61.7915 8.10171 62.4346 8.10171C62.7672 8.12385 63.1885 8.12385 63.4436 8.17919Z" fill="#E1251B"/>
</svg>
