<svg width="65" height="20" viewBox="0 0 65 20" fill="none" xmlns="http://www.w3.org/2000/svg">
<path fill-rule="evenodd" clip-rule="evenodd" d="M0 0H64.397V20H0V0Z" fill="#F1F6FD"/>
<path d="M25.169 12.6509C23.7498 12.6509 22.7408 11.8097 22.7408 10.4816C22.7408 9.15338 23.7941 8.30115 25.169 8.30115C26.5438 8.30115 27.5861 9.16445 27.5861 10.4816C27.5861 11.7987 26.566 12.6509 25.169 12.6509ZM25.169 11.6105C25.7566 11.6105 26.1003 11.0903 26.1003 10.4816C26.1003 9.87281 25.7677 9.34155 25.169 9.34155C24.5702 9.34155 24.2265 9.86174 24.2265 10.4816C24.2265 11.1014 24.5702 11.6105 25.169 11.6105Z" fill="#E6262F"/>
<path d="M39.3722 12.5623V6.69619H40.8136V8.71057H40.8358C41.2012 8.44851 41.6387 8.30549 42.0887 8.30106C43.2196 8.30106 44.0401 9.20864 44.0401 10.404C44.0401 11.8982 43.1309 12.6508 42.0776 12.6508C41.2903 12.6508 40.8912 12.2856 40.7914 12.1859H40.7692L40.7471 12.5623H39.3722ZM42.5432 10.4815C42.5432 9.92806 42.2217 9.43 41.6673 9.43C41.1129 9.43 40.7914 9.85058 40.7914 10.4815C40.7914 11.1123 41.1129 11.5329 41.6673 11.5329C42.2217 11.5329 42.5432 11.1123 42.5432 10.4815Z" fill="#E6262F"/>
<path d="M31.5889 8.41183H33.0413V12.5734H31.5889V8.41183ZM32.3207 6.29783C32.1031 6.29783 31.8944 6.38411 31.7405 6.53771C31.5866 6.69131 31.5002 6.89965 31.5002 7.11687C31.5235 7.31627 31.6194 7.50017 31.7697 7.63364C31.9199 7.76711 32.114 7.84085 32.3151 7.84085C32.5162 7.84085 32.7103 7.76711 32.8606 7.63364C33.0108 7.50017 33.1067 7.31627 33.13 7.11687C33.1301 6.90155 33.0451 6.69488 32.8937 6.54159C32.7422 6.38831 32.5363 6.30074 32.3207 6.29783Z" fill="#E6262F"/>
<path d="M50.238 12.5623H51.6572V10.4151C51.6572 9.91701 51.9898 9.56284 52.4111 9.56284C52.8325 9.56284 53.1762 9.88381 53.1762 10.4151V12.5623H54.5954V10.0609C54.5954 9.12012 53.9856 8.31214 52.8657 8.31214C52.6204 8.31081 52.3775 8.36029 52.1523 8.45745C51.9271 8.55461 51.7245 8.69733 51.5574 8.87661H51.5241V8.41176H50.238V12.5623Z" fill="#E6262F"/>
<path d="M55.4828 12.5732H56.9352V10.6474H56.9463L58.2325 12.5732H59.8402L58.2879 10.3596L59.807 8.41164H58.1993L56.9463 10.1272H56.9352V6.70716H55.4828V12.5732Z" fill="#E6262F"/>
<path d="M22.3748 8.46717C22.0379 8.35877 21.6864 8.30277 21.3325 8.30115C20.0353 8.30115 19.0485 9.12018 19.0485 10.4816C19.0485 11.8429 19.9355 12.6509 21.2771 12.6509C21.6497 12.6457 22.0195 12.586 22.3748 12.4738L22.2971 11.2563C22.0744 11.3874 21.8235 11.4633 21.5654 11.4777C21.4322 11.4839 21.2991 11.4624 21.1746 11.4147C21.0501 11.367 20.9369 11.2941 20.8421 11.2004C20.7473 11.1068 20.6729 10.9946 20.6238 10.8709C20.5746 10.7472 20.5516 10.6146 20.5564 10.4816C20.5564 9.86174 21.011 9.47436 21.5875 9.47436C21.8367 9.48293 22.0801 9.55127 22.2971 9.67359L22.3748 8.46717Z" fill="#E6262F"/>
<path d="M38.4297 8.40067V12.5623H37.0216L36.9994 12.1417H36.9772C36.8109 12.2856 36.4894 12.6619 35.5802 12.6619C34.671 12.6619 33.6953 11.7875 33.6953 10.4815C33.6953 9.17543 34.4714 8.31212 35.68 8.31212C36.4894 8.31212 36.822 8.6663 36.9551 8.77699H36.9883V8.40067H38.4297ZM35.2254 10.4483C35.2254 11.1345 35.6135 11.5661 36.1124 11.5661C36.6114 11.5661 36.9994 11.1345 36.9994 10.5036C36.9994 9.87272 36.6114 9.41893 36.1124 9.41893C35.6135 9.41893 35.2254 9.87272 35.2254 10.4483Z" fill="#E6262F"/>
<path d="M49.3069 8.40076V12.5624H47.8987L47.8766 12.1418H47.8433C47.6881 12.2856 47.3665 12.6509 46.4573 12.6509C45.5481 12.6509 44.5613 11.7876 44.5613 10.4816C44.5613 9.17552 45.3486 8.30115 46.546 8.30115C47.3665 8.30115 47.6992 8.6664 47.8211 8.77708H47.8544L47.8766 8.40076H49.3069ZM46.1025 10.4373C46.1025 11.1346 46.4795 11.5552 46.9785 11.5552C47.4774 11.5552 47.8766 11.1346 47.8766 10.5037C47.8766 9.87282 47.4885 9.40795 46.9785 9.40795C46.4684 9.40795 46.1025 9.87282 46.1025 10.4373Z" fill="#E6262F"/>
<path d="M14.4029 12.4074C14.9467 12.5668 15.5103 12.6488 16.0771 12.6509C17.3078 12.6509 18.5497 12.2081 18.5497 10.8578C18.5497 8.98734 15.9773 9.25298 15.9773 8.51142C15.9773 8.12403 16.3654 8.04655 16.7535 8.04655C17.1415 8.04655 17.9731 8.30112 18.1283 8.36753L18.2392 7.08363C17.7609 6.94182 17.2635 6.87461 16.7646 6.8844C15.5449 6.8844 14.3364 7.36034 14.3364 8.56676C14.3364 10.393 16.8976 10.0167 16.8976 10.9685C16.8976 11.3448 16.5317 11.4887 16.0549 11.4887C15.5782 11.4887 14.802 11.1567 14.5359 11.046L14.4029 12.4074Z" fill="#E6262F"/>
<path d="M30.8902 11.4333C30.7602 11.4707 30.6263 11.493 30.4911 11.4997C30.1917 11.4997 29.8702 11.3668 29.8702 10.8577V9.45208H30.7794V8.40061H29.8702V7.06138H28.4177V8.40061H27.7857V9.45208H28.4177V11.0901C28.4177 11.9977 28.839 12.6508 29.9145 12.6508C30.1823 12.6469 30.4493 12.621 30.7128 12.5733L30.8902 11.4333Z" fill="#E6262F"/>
<path d="M2.9714 9.73989C2.62768 9.20862 2.56116 8.4892 2.56116 7.94686C2.56116 6.08743 4.22431 4.51576 5.95398 4.51576H11.3869L9.28028 6.64083H5.92072C4.56802 6.64083 2.92705 8.01327 2.9714 9.73989ZM5.04479 8.21249C5.17784 7.76976 5.62135 7.19424 6.0316 6.8954C5.24437 6.8954 4.35736 7.2717 3.68101 8.21249H5.04479ZM6.13138 7.16102C5.79389 7.4567 5.5155 7.81347 5.3109 8.21249H6.94078C6.73279 7.81864 6.45907 7.46306 6.13138 7.16102ZM3.54796 8.48919C3.35186 8.85568 3.23478 9.2591 3.20424 9.67348H4.73434C4.73023 9.26908 4.80167 8.86745 4.945 8.48919H3.54796ZM5.20002 8.48919C5.07575 8.87336 4.99759 9.27091 4.96718 9.67348H7.27341C7.24845 9.2702 7.17015 8.87198 7.04057 8.48919H5.20002ZM8.5374 8.21249C7.89432 7.2717 7.00731 6.8954 6.23117 6.8954C6.66094 7.24929 6.99935 7.70096 7.21797 8.21249H8.5374ZM7.31776 8.48919C7.45219 8.86951 7.51971 9.27018 7.51734 9.67348H9.03635C9.02023 9.25811 8.90627 8.85238 8.70372 8.48919H7.31776ZM3.68101 11.3337C4.35736 12.3187 5.24437 12.6619 6.0316 12.6619C5.62135 12.352 5.17784 11.7764 5.04479 11.3337H3.68101ZM6.13138 12.4184C6.46478 12.1087 6.73903 11.7412 6.94078 11.3337H5.3109C5.5092 11.7462 5.78817 12.115 6.13138 12.4184ZM4.945 11.1013C4.8091 10.721 4.7379 10.3207 4.73434 9.91697H3.20424C3.2379 10.3308 3.3548 10.7336 3.54796 11.1013H4.945ZM7.04057 11.1013C7.16798 10.7179 7.24622 10.32 7.27341 9.91697H4.96718C4.99976 10.3192 5.07787 10.7165 5.20002 11.1013H7.04057ZM7.21797 11.3337C6.99683 11.8469 6.65897 12.3016 6.23117 12.6619C7.00731 12.6619 7.89432 12.3187 8.5374 11.3337H7.21797ZM8.70372 11.1013C8.90327 10.7368 9.01703 10.3318 9.03635 9.91697H7.51734C7.51235 10.3196 7.44503 10.7191 7.31776 11.1013H8.70372ZM9.28028 9.7731C9.31354 11.5772 7.68366 12.9275 6.33096 12.9275H2.9714L0.864746 15.0304H6.2977C8.02737 15.0304 9.69052 13.4698 9.69052 11.6104C9.69052 11.0681 9.62399 10.3486 9.28028 9.81736V9.7731Z" fill="#E6262F"/>
<path d="M60.9154 7.69222C60.9154 7.47988 60.9785 7.27231 61.0967 7.09575C61.2148 6.9192 61.3828 6.78159 61.5793 6.70033C61.7759 6.61907 61.9921 6.59781 62.2007 6.63924C62.4094 6.68066 62.601 6.78292 62.7514 6.93307C62.9018 7.08321 63.0043 7.27451 63.0458 7.48277C63.0873 7.69103 63.066 7.90689 62.9846 8.10307C62.9031 8.29924 62.7653 8.46692 62.5884 8.58489C62.4116 8.70286 62.2036 8.76581 61.9909 8.76581C61.7057 8.76581 61.4321 8.6527 61.2304 8.45136C61.0287 8.25002 60.9154 7.97695 60.9154 7.69222ZM62.8114 7.69222C62.8114 7.18308 62.4455 6.8289 61.9909 6.8289C61.5363 6.8289 61.1815 7.18308 61.1815 7.69222C61.1681 7.80701 61.1791 7.92335 61.2139 8.03358C61.2488 8.14381 61.3066 8.24544 61.3835 8.33178C61.4605 8.41812 61.5549 8.4872 61.6606 8.53452C61.7662 8.58184 61.8807 8.6063 61.9965 8.6063C62.1122 8.6063 62.2267 8.58184 62.3324 8.53452C62.438 8.4872 62.5324 8.41812 62.6094 8.33178C62.6863 8.24544 62.7441 8.14381 62.779 8.03358C62.8138 7.92335 62.8248 7.80701 62.8114 7.69222ZM61.5807 7.07241H62.0353C62.3235 7.07241 62.4788 7.18308 62.4788 7.43764C62.4839 7.48006 62.4794 7.52309 62.4658 7.56358C62.4521 7.60407 62.4297 7.64103 62.3999 7.67176C62.3702 7.70249 62.334 7.72623 62.2939 7.74126C62.2539 7.75629 62.211 7.76221 62.1683 7.75862L62.4899 8.30096H62.257L61.9466 7.76969H61.8024V8.30096H61.5807V7.07241ZM61.8024 7.60367H62.002C62.1351 7.60367 62.257 7.58153 62.257 7.41551C62.257 7.24949 62.124 7.24949 62.0131 7.24949H61.8024V7.60367Z" fill="#E6262F"/>
</svg>
