<svg width="25" height="29" viewBox="0 0 25 29" fill="none" xmlns="http://www.w3.org/2000/svg">
<path d="M12.3481 1.51044C12.4279 1.44234 12.5025 1.37743 12.5717 1.3161C15.5607 3.55346 18.5111 4.85571 20.7693 5.60536C21.9862 6.00933 23.0052 6.2539 23.7259 6.39814C23.7992 6.41281 23.8695 6.42645 23.9365 6.43912C23.1439 16.3656 20.1519 21.7403 17.4426 24.6279C16.0419 26.1209 14.6948 26.9732 13.7177 27.4496C13.2284 27.6882 12.8306 27.8331 12.564 27.9168C12.524 27.9294 12.4869 27.9405 12.453 27.9504C6.82439 25.5753 3.9363 20.1898 2.46231 15.1573C1.71793 12.6158 1.35138 10.2181 1.17156 8.45324C1.08859 7.63887 1.04568 6.96231 1.02353 6.47241C4.83786 5.91521 7.79386 4.56973 9.83847 3.31827C10.9409 2.64351 11.7798 1.99524 12.3481 1.51044Z" fill="#0DAB01" stroke="#7BCD74" stroke-width="2"/>
<path d="M8 14.5L11.5 18L18.5 10" stroke="white" stroke-width="2.5"/>
</svg>
